<svg width="26" height="12" viewBox="0 0 26 12" fill="none" xmlns="http://www.w3.org/2000/svg">
<path d="M4.85938 2.03125L2.41406 11.375H0L3.55469 0H5.0625L4.85938 2.03125ZM6.78906 11.375L4.32812 2.03125L4.10156 0H5.63281L9.21875 11.375H6.78906ZM6.875 7.13281V9.03125H1.74219V7.13281H6.875ZM10.3125 0H13.9609C14.7214 0 15.3698 0.130208 15.9062 0.390625C16.4427 0.651042 16.8542 1.03646 17.1406 1.54688C17.4271 2.05729 17.5703 2.6875 17.5703 3.4375C17.5703 4.05208 17.487 4.57812 17.3203 5.01562C17.1536 5.44792 16.9167 5.8099 16.6094 6.10156C16.3021 6.38802 15.9349 6.61719 15.5078 6.78906L14.8125 7.20312H11.8516L11.8438 5.30469H13.8984C14.2109 5.30469 14.4688 5.23698 14.6719 5.10156C14.8802 4.96094 15.0339 4.76562 15.1328 4.51562C15.237 4.26042 15.2891 3.96354 15.2891 3.625C15.2891 3.26562 15.2422 2.95833 15.1484 2.70312C15.0599 2.44271 14.9167 2.24479 14.7188 2.10938C14.526 1.96875 14.2734 1.89844 13.9609 1.89844H12.6016V11.375H10.3125V0ZM15.4766 11.375L13.3906 6.30469L15.7891 6.29688L17.9219 11.2656V11.375H15.4766ZM25.4766 9.48438V11.375H20.75V9.48438H25.4766ZM21.4531 0V11.375H19.1641V0H21.4531Z" fill="#9BE9B9"/>
</svg>
