<svg width="54" height="12" viewBox="0 0 54 12" fill="none" xmlns="http://www.w3.org/2000/svg">
<path d="M3.84375 6.57812H1.50781L1.5 4.92188H3.48438C3.79688 4.92188 4.05208 4.86979 4.25 4.76562C4.45312 4.65625 4.60156 4.4974 4.69531 4.28906C4.79427 4.07552 4.84375 3.81771 4.84375 3.51562C4.84375 3.16667 4.79688 2.88802 4.70312 2.67969C4.61458 2.46615 4.47135 2.3099 4.27344 2.21094C4.08073 2.11198 3.82552 2.0625 3.50781 2.0625H2.28906V11.5391H0V0.164062H3.50781C4.07031 0.164062 4.57552 0.226562 5.02344 0.351562C5.47135 0.476562 5.85156 0.669271 6.16406 0.929688C6.47656 1.1849 6.71615 1.50781 6.88281 1.89844C7.04948 2.28385 7.13281 2.74219 7.13281 3.27344C7.13281 3.74219 7.03906 4.17448 6.85156 4.57031C6.66406 4.96615 6.36979 5.29167 5.96875 5.54688C5.56771 5.79688 5.04948 5.9349 4.41406 5.96094L3.84375 6.57812ZM3.75781 11.5391H0.859375L1.77344 9.64844H3.75781C4.0651 9.64844 4.3099 9.58333 4.49219 9.45312C4.67448 9.32292 4.80729 9.14844 4.89062 8.92969C4.97917 8.70573 5.02344 8.45052 5.02344 8.16406C5.02344 7.84115 4.98438 7.5599 4.90625 7.32031C4.83333 7.08073 4.71094 6.89844 4.53906 6.77344C4.36719 6.64323 4.13542 6.57812 3.84375 6.57812H1.875L1.89062 4.92188H4.28125L4.82031 5.57812C5.42969 5.55729 5.91667 5.67448 6.28125 5.92969C6.64583 6.17969 6.90625 6.50781 7.0625 6.91406C7.22396 7.3151 7.30469 7.74219 7.30469 8.19531C7.30469 8.92448 7.16667 9.53906 6.89062 10.0391C6.61979 10.5339 6.22135 10.9089 5.69531 11.1641C5.16927 11.4141 4.52344 11.5391 3.75781 11.5391ZM14.0938 0.164062H16.375V7.97656C16.375 8.85156 16.2135 9.5651 15.8906 10.1172C15.5729 10.6641 15.1328 11.0651 14.5703 11.3203C14.0078 11.5703 13.3646 11.6953 12.6406 11.6953C11.9115 11.6953 11.263 11.5703 10.6953 11.3203C10.1276 11.0651 9.6849 10.6641 9.36719 10.1172C9.05469 9.5651 8.89844 8.85156 8.89844 7.97656V0.164062H11.1797V7.97656C11.1797 8.47135 11.2344 8.85156 11.3438 9.11719C11.4583 9.38281 11.6224 9.5651 11.8359 9.66406C12.0547 9.75781 12.3229 9.80469 12.6406 9.80469C12.9635 9.80469 13.2292 9.75781 13.4375 9.66406C13.651 9.5651 13.8125 9.38281 13.9219 9.11719C14.0365 8.85156 14.0938 8.47135 14.0938 7.97656V0.164062ZM22.9375 8.54688C22.9375 8.34375 22.9193 8.15885 22.8828 7.99219C22.8464 7.82552 22.7682 7.67188 22.6484 7.53125C22.5339 7.39062 22.3646 7.25 22.1406 7.10938C21.9219 6.96875 21.6354 6.82292 21.2812 6.67188C20.8594 6.49479 20.4505 6.30729 20.0547 6.10938C19.6589 5.90625 19.3021 5.67188 18.9844 5.40625C18.6667 5.14062 18.4141 4.82812 18.2266 4.46875C18.0443 4.10417 17.9531 3.67708 17.9531 3.1875C17.9531 2.70833 18.0391 2.27344 18.2109 1.88281C18.388 1.49219 18.638 1.15885 18.9609 0.882812C19.2839 0.601562 19.6615 0.385417 20.0938 0.234375C20.5312 0.0833333 21.0182 0.0078125 21.5547 0.0078125C22.2839 0.0078125 22.9141 0.158854 23.4453 0.460938C23.9818 0.763021 24.3958 1.17708 24.6875 1.70312C24.9844 2.22917 25.1328 2.83333 25.1328 3.51562H22.8516C22.8516 3.19271 22.8047 2.90885 22.7109 2.66406C22.6224 2.41406 22.4792 2.21875 22.2812 2.07812C22.0833 1.9375 21.8281 1.86719 21.5156 1.86719C21.224 1.86719 20.9818 1.92708 20.7891 2.04688C20.6016 2.16146 20.4609 2.32031 20.3672 2.52344C20.2786 2.72135 20.2344 2.94531 20.2344 3.19531C20.2344 3.38281 20.2786 3.55208 20.3672 3.70312C20.4609 3.84896 20.5885 3.98177 20.75 4.10156C20.9115 4.21615 21.1016 4.32812 21.3203 4.4375C21.5443 4.54688 21.7891 4.65365 22.0547 4.75781C22.5703 4.96094 23.026 5.1849 23.4219 5.42969C23.8177 5.66927 24.1484 5.9401 24.4141 6.24219C24.6797 6.53906 24.8802 6.875 25.0156 7.25C25.151 7.625 25.2188 8.05208 25.2188 8.53125C25.2188 9.00521 25.1354 9.4375 24.9688 9.82812C24.8073 10.2135 24.5703 10.5469 24.2578 10.8281C23.9453 11.1042 23.5677 11.3177 23.125 11.4688C22.6875 11.6198 22.1979 11.6953 21.6562 11.6953C21.1302 11.6953 20.6328 11.6224 20.1641 11.4766C19.6953 11.3255 19.2812 11.099 18.9219 10.7969C18.5677 10.4896 18.2891 10.1016 18.0859 9.63281C17.8828 9.15885 17.7812 8.59896 17.7812 7.95312H20.0703C20.0703 8.29688 20.1042 8.59115 20.1719 8.83594C20.2396 9.07552 20.3438 9.26823 20.4844 9.41406C20.625 9.55469 20.7969 9.66146 21 9.73438C21.2083 9.80208 21.4453 9.83594 21.7109 9.83594C22.013 9.83594 22.2526 9.77865 22.4297 9.66406C22.612 9.54948 22.7422 9.39583 22.8203 9.20312C22.8984 9.01042 22.9375 8.79167 22.9375 8.54688ZM32.1875 7.75H34.4609C34.4297 8.60417 34.2578 9.32552 33.9453 9.91406C33.6328 10.4974 33.1875 10.9401 32.6094 11.2422C32.0365 11.5443 31.3438 11.6953 30.5312 11.6953C29.901 11.6953 29.3411 11.5911 28.8516 11.3828C28.362 11.1693 27.9453 10.8568 27.6016 10.4453C27.2578 10.0339 26.9974 9.52604 26.8203 8.92188C26.6484 8.3125 26.5625 7.61198 26.5625 6.82031V4.89062C26.5625 4.09896 26.6536 3.39844 26.8359 2.78906C27.0234 2.17969 27.2891 1.66927 27.6328 1.25781C27.9818 0.841146 28.401 0.528646 28.8906 0.320312C29.3854 0.106771 29.9427 0 30.5625 0C31.3906 0 32.0833 0.15625 32.6406 0.46875C33.1979 0.78125 33.6276 1.23698 33.9297 1.83594C34.237 2.42969 34.4219 3.15625 34.4844 4.01562H32.1953C32.1849 3.47396 32.125 3.04948 32.0156 2.74219C31.9115 2.42969 31.7448 2.21094 31.5156 2.08594C31.2865 1.95573 30.9688 1.89062 30.5625 1.89062C30.2604 1.89062 30 1.94531 29.7812 2.05469C29.5625 2.15885 29.3828 2.32812 29.2422 2.5625C29.1016 2.79688 28.9974 3.10417 28.9297 3.48438C28.8672 3.86458 28.8359 4.32812 28.8359 4.875V6.82031C28.8359 7.35677 28.8646 7.8151 28.9219 8.19531C28.9792 8.57031 29.0703 8.8776 29.1953 9.11719C29.3203 9.35677 29.4896 9.53125 29.7031 9.64062C29.9219 9.75 30.1979 9.80469 30.5312 9.80469C30.9167 9.80469 31.2266 9.7474 31.4609 9.63281C31.7005 9.51823 31.8776 9.3125 31.9922 9.01562C32.1068 8.71875 32.1719 8.29688 32.1875 7.75ZM40.0078 2.19531L37.5625 11.5391H35.1484L38.7031 0.164062H40.2109L40.0078 2.19531ZM41.9375 11.5391L39.4766 2.19531L39.25 0.164062H40.7812L44.3672 11.5391H41.9375ZM42.0234 7.29688V9.19531H36.8906V7.29688H42.0234ZM45.4609 0.164062H49.1094C49.8698 0.164062 50.5182 0.294271 51.0547 0.554688C51.5911 0.815104 52.0026 1.20052 52.2891 1.71094C52.5755 2.22135 52.7188 2.85156 52.7188 3.60156C52.7188 4.21615 52.6354 4.74219 52.4688 5.17969C52.3021 5.61198 52.0651 5.97396 51.7578 6.26562C51.4505 6.55208 51.0833 6.78125 50.6562 6.95312L49.9609 7.36719H47L46.9922 5.46875H49.0469C49.3594 5.46875 49.6172 5.40104 49.8203 5.26562C50.0286 5.125 50.1823 4.92969 50.2812 4.67969C50.3854 4.42448 50.4375 4.1276 50.4375 3.78906C50.4375 3.42969 50.3906 3.1224 50.2969 2.86719C50.2083 2.60677 50.0651 2.40885 49.8672 2.27344C49.6745 2.13281 49.4219 2.0625 49.1094 2.0625H47.75V11.5391H45.4609V0.164062ZM50.625 11.5391L48.5391 6.46875L50.9375 6.46094L53.0703 11.4297V11.5391H50.625Z" fill="#FFDC5D"/>
</svg>
