<svg width="148" height="12" viewBox="0 0 148 12" fill="none" xmlns="http://www.w3.org/2000/svg">
<path d="M5.625 7.75H7.89844C7.86719 8.60417 7.69531 9.32552 7.38281 9.91406C7.07031 10.4974 6.625 10.9401 6.04688 11.2422C5.47396 11.5443 4.78125 11.6953 3.96875 11.6953C3.33854 11.6953 2.77865 11.5911 2.28906 11.3828C1.79948 11.1693 1.38281 10.8568 1.03906 10.4453C0.695312 10.0339 0.434896 9.52604 0.257812 8.92188C0.0859375 8.3125 0 7.61198 0 6.82031V4.89062C0 4.09896 0.0911458 3.39844 0.273438 2.78906C0.460938 2.17969 0.726562 1.66927 1.07031 1.25781C1.41927 0.841146 1.83854 0.528646 2.32812 0.320312C2.82292 0.106771 3.38021 0 4 0C4.82812 0 5.52083 0.15625 6.07812 0.46875C6.63542 0.78125 7.0651 1.23698 7.36719 1.83594C7.67448 2.42969 7.85938 3.15625 7.92188 4.01562H5.63281C5.6224 3.47396 5.5625 3.04948 5.45312 2.74219C5.34896 2.42969 5.18229 2.21094 4.95312 2.08594C4.72396 1.95573 4.40625 1.89062 4 1.89062C3.69792 1.89062 3.4375 1.94531 3.21875 2.05469C3 2.15885 2.82031 2.32812 2.67969 2.5625C2.53906 2.79688 2.4349 3.10417 2.36719 3.48438C2.30469 3.86458 2.27344 4.32812 2.27344 4.875V6.82031C2.27344 7.35677 2.30208 7.8151 2.35938 8.19531C2.41667 8.57031 2.50781 8.8776 2.63281 9.11719C2.75781 9.35677 2.92708 9.53125 3.14062 9.64062C3.35938 9.75 3.63542 9.80469 3.96875 9.80469C4.35417 9.80469 4.66406 9.7474 4.89844 9.63281C5.13802 9.51823 5.3151 9.3125 5.42969 9.01562C5.54427 8.71875 5.60938 8.29688 5.625 7.75ZM15.6406 9.64844V11.5391H10.9141V9.64844H15.6406ZM11.6172 0.164062V11.5391H9.32812V0.164062H11.6172ZM19.3594 0.164062V11.5391H17.0859V0.164062H19.3594ZM27.8359 9.64844V11.5391H22.8906V9.64844H27.8359ZM23.6016 0.164062V11.5391H21.3125V0.164062H23.6016ZM27.1719 4.77344V6.60938H22.8906V4.77344H27.1719ZM27.8203 0.164062V2.0625H22.8906V0.164062H27.8203ZM37.125 0.164062V11.5391H34.9141L31.3438 4.42188V11.5391H29.1719V0.164062H31.3516L34.9531 7.35938V0.164062H37.125ZM43.2812 0.164062V11.5391H41.0078V0.164062H43.2812ZM46.1094 0.164062V2.0625H38.2344V0.164062H46.1094ZM53.9609 9.64844V11.5391H49.0156V9.64844H53.9609ZM49.7266 0.164062V11.5391H47.4375V0.164062H49.7266ZM53.2969 4.77344V6.60938H49.0156V4.77344H53.2969ZM53.9453 0.164062V2.0625H49.0156V0.164062H53.9453ZM60.1094 8.54688C60.1094 8.34375 60.0911 8.15885 60.0547 7.99219C60.0182 7.82552 59.9401 7.67188 59.8203 7.53125C59.7057 7.39062 59.5365 7.25 59.3125 7.10938C59.0938 6.96875 58.8073 6.82292 58.4531 6.67188C58.0312 6.49479 57.6224 6.30729 57.2266 6.10938C56.8307 5.90625 56.474 5.67188 56.1562 5.40625C55.8385 5.14062 55.5859 4.82812 55.3984 4.46875C55.2161 4.10417 55.125 3.67708 55.125 3.1875C55.125 2.70833 55.2109 2.27344 55.3828 1.88281C55.5599 1.49219 55.8099 1.15885 56.1328 0.882812C56.4557 0.601562 56.8333 0.385417 57.2656 0.234375C57.7031 0.0833333 58.1901 0.0078125 58.7266 0.0078125C59.4557 0.0078125 60.0859 0.158854 60.6172 0.460938C61.1536 0.763021 61.5677 1.17708 61.8594 1.70312C62.1562 2.22917 62.3047 2.83333 62.3047 3.51562H60.0234C60.0234 3.19271 59.9766 2.90885 59.8828 2.66406C59.7943 2.41406 59.651 2.21875 59.4531 2.07812C59.2552 1.9375 59 1.86719 58.6875 1.86719C58.3958 1.86719 58.1536 1.92708 57.9609 2.04688C57.7734 2.16146 57.6328 2.32031 57.5391 2.52344C57.4505 2.72135 57.4062 2.94531 57.4062 3.19531C57.4062 3.38281 57.4505 3.55208 57.5391 3.70312C57.6328 3.84896 57.7604 3.98177 57.9219 4.10156C58.0833 4.21615 58.2734 4.32812 58.4922 4.4375C58.7161 4.54688 58.9609 4.65365 59.2266 4.75781C59.7422 4.96094 60.1979 5.1849 60.5938 5.42969C60.9896 5.66927 61.3203 5.9401 61.5859 6.24219C61.8516 6.53906 62.0521 6.875 62.1875 7.25C62.3229 7.625 62.3906 8.05208 62.3906 8.53125C62.3906 9.00521 62.3073 9.4375 62.1406 9.82812C61.9792 10.2135 61.7422 10.5469 61.4297 10.8281C61.1172 11.1042 60.7396 11.3177 60.2969 11.4688C59.8594 11.6198 59.3698 11.6953 58.8281 11.6953C58.3021 11.6953 57.8047 11.6224 57.3359 11.4766C56.8672 11.3255 56.4531 11.099 56.0938 10.7969C55.7396 10.4896 55.4609 10.1016 55.2578 9.63281C55.0547 9.15885 54.9531 8.59896 54.9531 7.95312H57.2422C57.2422 8.29688 57.276 8.59115 57.3438 8.83594C57.4115 9.07552 57.5156 9.26823 57.6562 9.41406C57.7969 9.55469 57.9688 9.66146 58.1719 9.73438C58.3802 9.80208 58.6172 9.83594 58.8828 9.83594C59.1849 9.83594 59.4245 9.77865 59.6016 9.66406C59.7839 9.54948 59.9141 9.39583 59.9922 9.20312C60.0703 9.01042 60.1094 8.79167 60.1094 8.54688ZM70.5938 11.5391H68.5859L68.6016 9.64844H70.5938C71.1458 9.64844 71.5755 9.54948 71.8828 9.35156C72.1901 9.15365 72.4062 8.84115 72.5312 8.41406C72.6615 7.98698 72.7266 7.42708 72.7266 6.73438V4.96094C72.7266 4.4349 72.6927 3.98958 72.625 3.625C72.5573 3.25521 72.4427 2.95833 72.2812 2.73438C72.1198 2.50521 71.9036 2.33594 71.6328 2.22656C71.362 2.11719 71.026 2.0625 70.625 2.0625H68.5469V0.164062H70.625C71.2812 0.164062 71.8776 0.270833 72.4141 0.484375C72.9505 0.697917 73.4115 1.01042 73.7969 1.42188C74.1823 1.82812 74.4792 2.33073 74.6875 2.92969C74.8958 3.52865 75 4.21094 75 4.97656V6.73438C75 7.50521 74.8958 8.1875 74.6875 8.78125C74.4792 9.375 74.1823 9.8776 73.7969 10.2891C73.4167 10.6953 72.9557 11.0052 72.4141 11.2188C71.8724 11.4323 71.2656 11.5391 70.5938 11.5391ZM69.9141 0.164062V11.5391H67.625V0.164062H69.9141ZM80.6328 2.19531L78.1875 11.5391H75.7734L79.3281 0.164062H80.8359L80.6328 2.19531ZM82.5625 11.5391L80.1016 2.19531L79.875 0.164062H81.4062L84.9922 11.5391H82.5625ZM82.6484 7.29688V9.19531H77.5156V7.29688H82.6484ZM89.0234 9.10938L91.1797 0.164062H93.6484L90.3516 11.5391H88.6875L89.0234 9.10938ZM87.1797 0.164062L89.3281 9.10938L89.6797 11.5391H88.0078L84.7344 0.164062H87.1797ZM97.1094 0.164062V11.5391H94.8359V0.164062H97.1094ZM102.602 9.10938L104.758 0.164062H107.227L103.93 11.5391H102.266L102.602 9.10938ZM100.758 0.164062L102.906 9.10938L103.258 11.5391H101.586L98.3125 0.164062H100.758ZM110.688 0.164062V11.5391H108.414V0.164062H110.688ZM119.164 9.64844V11.5391H114.219V9.64844H119.164ZM114.93 0.164062V11.5391H112.641V0.164062H114.93ZM118.5 4.77344V6.60938H114.219V4.77344H118.5ZM119.148 0.164062V2.0625H114.219V0.164062H119.148ZM128.453 0.164062V11.5391H126.242L122.672 4.42188V11.5391H120.5V0.164062H122.68L126.281 7.35938V0.164062H128.453ZM133.266 11.5391H131.258L131.273 9.64844H133.266C133.818 9.64844 134.247 9.54948 134.555 9.35156C134.862 9.15365 135.078 8.84115 135.203 8.41406C135.333 7.98698 135.398 7.42708 135.398 6.73438V4.96094C135.398 4.4349 135.365 3.98958 135.297 3.625C135.229 3.25521 135.115 2.95833 134.953 2.73438C134.792 2.50521 134.576 2.33594 134.305 2.22656C134.034 2.11719 133.698 2.0625 133.297 2.0625H131.219V0.164062H133.297C133.953 0.164062 134.549 0.270833 135.086 0.484375C135.622 0.697917 136.083 1.01042 136.469 1.42188C136.854 1.82812 137.151 2.33073 137.359 2.92969C137.568 3.52865 137.672 4.21094 137.672 4.97656V6.73438C137.672 7.50521 137.568 8.1875 137.359 8.78125C137.151 9.375 136.854 9.8776 136.469 10.2891C136.089 10.6953 135.628 11.0052 135.086 11.2188C134.544 11.4323 133.938 11.5391 133.266 11.5391ZM132.586 0.164062V11.5391H130.297V0.164062H132.586ZM143.305 2.19531L140.859 11.5391H138.445L142 0.164062H143.508L143.305 2.19531ZM145.234 11.5391L142.773 2.19531L142.547 0.164062H144.078L147.664 11.5391H145.234ZM145.32 7.29688V9.19531H140.188V7.29688H145.32Z" fill="#9BE9B9"/>
</svg>
