<svg width="50" height="62" viewBox="0 0 50 62" fill="none" xmlns="http://www.w3.org/2000/svg">
<rect x="1" y="7" width="48" height="48" rx="24" fill="white"/>
<rect x="1" y="7" width="48" height="48" rx="24" stroke="#CCCCCC" stroke-width="2"/>
<path d="M29.248 35.7246V38H20.8691V36.0566L24.7168 31.1641C25.0879 30.6497 25.3776 30.2005 25.5859 29.8164C25.7943 29.4258 25.944 29.0775 26.0352 28.7715C26.1263 28.459 26.1719 28.166 26.1719 27.8926C26.1719 27.4694 26.123 27.1081 26.0254 26.8086C25.9277 26.5026 25.7812 26.2682 25.5859 26.1055C25.3971 25.9362 25.1628 25.8516 24.8828 25.8516C24.5443 25.8516 24.2643 25.9557 24.043 26.1641C23.8216 26.3724 23.6556 26.6589 23.5449 27.0234C23.4408 27.3815 23.3887 27.7884 23.3887 28.2441H20.6445C20.6445 27.3913 20.8171 26.61 21.1621 25.9004C21.5137 25.1908 22.0052 24.6276 22.6367 24.2109C23.2747 23.7878 24.0397 23.5762 24.9316 23.5762C25.804 23.5762 26.5332 23.7389 27.1191 24.0645C27.7116 24.39 28.1576 24.8555 28.457 25.4609C28.763 26.0599 28.916 26.776 28.916 27.6094C28.916 28.0846 28.8542 28.5469 28.7305 28.9961C28.6068 29.4388 28.431 29.8815 28.2031 30.3242C27.9753 30.7604 27.6953 31.2064 27.3633 31.6621C27.0312 32.1178 26.6569 32.5898 26.2402 33.0781L24.3848 35.7246H29.248Z" fill="#CCCCCC"/>
</svg>
