<svg width="50" height="62" viewBox="0 0 50 62" fill="none" xmlns="http://www.w3.org/2000/svg">
<rect x="1" y="7" width="48" height="48" rx="24" fill="white"/>
<rect x="1" y="7" width="48" height="48" rx="24" stroke="#CCCCCC" stroke-width="2"/>
<path d="M23.3301 29.6309H24.6582C25.0033 29.6309 25.2865 29.5527 25.5078 29.3965C25.7292 29.2337 25.8919 29.0059 25.9961 28.7129C26.1003 28.4199 26.1523 28.0781 26.1523 27.6875C26.1523 27.3229 26.1035 27.0039 26.0059 26.7305C25.9082 26.457 25.7585 26.2422 25.5566 26.0859C25.3548 25.9297 25.1009 25.8516 24.7949 25.8516C24.5605 25.8516 24.3424 25.9167 24.1406 26.0469C23.9388 26.1771 23.776 26.3626 23.6523 26.6035C23.5352 26.8379 23.4766 27.1211 23.4766 27.4531H20.7227C20.7227 26.6719 20.9017 25.9915 21.2598 25.4121C21.6178 24.8327 22.0996 24.3802 22.7051 24.0547C23.3105 23.7292 23.9811 23.5664 24.7168 23.5664C25.5436 23.5664 26.2695 23.7227 26.8945 24.0352C27.5195 24.3411 28.0078 24.7969 28.3594 25.4023C28.7109 26.0013 28.8867 26.7435 28.8867 27.6289C28.8867 28.0846 28.7988 28.5241 28.623 28.9473C28.4538 29.3704 28.2064 29.7513 27.8809 30.0898C27.5553 30.4219 27.1582 30.6855 26.6895 30.8809C26.2272 31.0762 25.6999 31.1738 25.1074 31.1738H23.3301V29.6309ZM23.3301 31.8477V30.3535H25.1074C25.7715 30.3535 26.3509 30.4414 26.8457 30.6172C27.347 30.7865 27.7604 31.0339 28.0859 31.3594C28.418 31.6849 28.6654 32.0723 28.8281 32.5215C28.9909 32.9707 29.0723 33.4655 29.0723 34.0059C29.0723 34.6699 28.9616 35.2624 28.7402 35.7832C28.5189 36.304 28.2096 36.7435 27.8125 37.1016C27.4154 37.4596 26.9531 37.7331 26.4258 37.9219C25.8984 38.1042 25.3255 38.1953 24.707 38.1953C24.1927 38.1953 23.6882 38.1139 23.1934 37.9512C22.7051 37.7884 22.2656 37.5378 21.875 37.1992C21.4844 36.8607 21.1751 36.4342 20.9473 35.9199C20.7194 35.4056 20.6055 34.7969 20.6055 34.0938H23.3398C23.3398 34.4453 23.4017 34.7611 23.5254 35.041C23.6491 35.3145 23.8184 35.5293 24.0332 35.6855C24.2546 35.8418 24.502 35.9199 24.7754 35.9199C25.0944 35.9199 25.3711 35.8385 25.6055 35.6758C25.8398 35.513 26.0189 35.2852 26.1426 34.9922C26.2663 34.6992 26.3281 34.3574 26.3281 33.9668C26.3281 33.4655 26.263 33.0618 26.1328 32.7559C26.0026 32.4434 25.8138 32.2155 25.5664 32.0723C25.319 31.9225 25.0195 31.8477 24.668 31.8477H23.3301Z" fill="#CCCCCC"/>
</svg>
