<svg width="72" height="12" viewBox="0 0 72 12" fill="none" xmlns="http://www.w3.org/2000/svg">
<path d="M6.52344 9.64062V11.5312H1.57812V9.64062H6.52344ZM2.28906 0.15625V11.5312H0V0.15625H2.28906ZM5.85938 4.76562V6.60156H1.57812V4.76562H5.85938ZM6.50781 0.15625V2.05469H1.57812V0.15625H6.50781ZM8.67188 0.15625H10.6797L13 7.9375L15.3125 0.15625H17.0859L13.8516 11.5312H12.1406L8.67188 0.15625ZM7.85938 0.15625H9.77344L10.0703 7.65625V11.5312H7.85938V0.15625ZM16.2109 0.15625H18.1328V11.5312H15.9297V7.65625L16.2109 0.15625ZM23.875 7.52344H21.5469V5.625H23.875C24.2031 5.625 24.4688 5.55208 24.6719 5.40625C24.875 5.26042 25.0234 5.0599 25.1172 4.80469C25.2109 4.54427 25.2578 4.2526 25.2578 3.92969C25.2578 3.60156 25.2109 3.29427 25.1172 3.00781C25.0234 2.72135 24.875 2.49219 24.6719 2.32031C24.4688 2.14323 24.2031 2.05469 23.875 2.05469H22.2891V11.5312H20V0.15625H23.875C24.6406 0.15625 25.2969 0.317708 25.8438 0.640625C26.3958 0.963542 26.8203 1.40885 27.1172 1.97656C27.4141 2.53906 27.5625 3.1849 27.5625 3.91406C27.5625 4.64844 27.4141 5.28646 27.1172 5.82812C26.8203 6.36458 26.3958 6.78125 25.8438 7.07812C25.2969 7.375 24.6406 7.52344 23.875 7.52344ZM29.1016 0.15625H32.75C33.5104 0.15625 34.1589 0.286458 34.6953 0.546875C35.2318 0.807292 35.6432 1.19271 35.9297 1.70312C36.2161 2.21354 36.3594 2.84375 36.3594 3.59375C36.3594 4.20833 36.276 4.73438 36.1094 5.17188C35.9427 5.60417 35.7057 5.96615 35.3984 6.25781C35.0911 6.54427 34.724 6.77344 34.2969 6.94531L33.6016 7.35938H30.6406L30.6328 5.46094H32.6875C33 5.46094 33.2578 5.39323 33.4609 5.25781C33.6693 5.11719 33.8229 4.92188 33.9219 4.67188C34.026 4.41667 34.0781 4.11979 34.0781 3.78125C34.0781 3.42188 34.0312 3.11458 33.9375 2.85938C33.849 2.59896 33.7057 2.40104 33.5078 2.26562C33.3151 2.125 33.0625 2.05469 32.75 2.05469H31.3906V11.5312H29.1016V0.15625ZM34.2656 11.5312L32.1797 6.46094L34.5781 6.45312L36.7109 11.4219V11.5312H34.2656ZM44.4766 9.64062V11.5312H39.5312V9.64062H44.4766ZM40.2422 0.15625V11.5312H37.9531V0.15625H40.2422ZM43.8125 4.76562V6.60156H39.5312V4.76562H43.8125ZM44.4609 0.15625V2.05469H39.5312V0.15625H44.4609ZM50.625 8.53906C50.625 8.33594 50.6068 8.15104 50.5703 7.98438C50.5339 7.81771 50.4557 7.66406 50.3359 7.52344C50.2214 7.38281 50.0521 7.24219 49.8281 7.10156C49.6094 6.96094 49.3229 6.8151 48.9688 6.66406C48.5469 6.48698 48.138 6.29948 47.7422 6.10156C47.3464 5.89844 46.9896 5.66406 46.6719 5.39844C46.3542 5.13281 46.1016 4.82031 45.9141 4.46094C45.7318 4.09635 45.6406 3.66927 45.6406 3.17969C45.6406 2.70052 45.7266 2.26562 45.8984 1.875C46.0755 1.48438 46.3255 1.15104 46.6484 0.875C46.9714 0.59375 47.349 0.377604 47.7812 0.226562C48.2188 0.0755208 48.7057 0 49.2422 0C49.9714 0 50.6016 0.151042 51.1328 0.453125C51.6693 0.755208 52.0833 1.16927 52.375 1.69531C52.6719 2.22135 52.8203 2.82552 52.8203 3.50781H50.5391C50.5391 3.1849 50.4922 2.90104 50.3984 2.65625C50.3099 2.40625 50.1667 2.21094 49.9688 2.07031C49.7708 1.92969 49.5156 1.85938 49.2031 1.85938C48.9115 1.85938 48.6693 1.91927 48.4766 2.03906C48.2891 2.15365 48.1484 2.3125 48.0547 2.51562C47.9661 2.71354 47.9219 2.9375 47.9219 3.1875C47.9219 3.375 47.9661 3.54427 48.0547 3.69531C48.1484 3.84115 48.276 3.97396 48.4375 4.09375C48.599 4.20833 48.7891 4.32031 49.0078 4.42969C49.2318 4.53906 49.4766 4.64583 49.7422 4.75C50.2578 4.95312 50.7135 5.17708 51.1094 5.42188C51.5052 5.66146 51.8359 5.93229 52.1016 6.23438C52.3672 6.53125 52.5677 6.86719 52.7031 7.24219C52.8385 7.61719 52.9062 8.04427 52.9062 8.52344C52.9062 8.9974 52.8229 9.42969 52.6562 9.82031C52.4948 10.2057 52.2578 10.5391 51.9453 10.8203C51.6328 11.0964 51.2552 11.3099 50.8125 11.4609C50.375 11.612 49.8854 11.6875 49.3438 11.6875C48.8177 11.6875 48.3203 11.6146 47.8516 11.4688C47.3828 11.3177 46.9688 11.0911 46.6094 10.7891C46.2552 10.4818 45.9766 10.0938 45.7734 9.625C45.5703 9.15104 45.4688 8.59115 45.4688 7.94531H47.7578C47.7578 8.28906 47.7917 8.58333 47.8594 8.82812C47.9271 9.06771 48.0312 9.26042 48.1719 9.40625C48.3125 9.54688 48.4844 9.65365 48.6875 9.72656C48.8958 9.79427 49.1328 9.82812 49.3984 9.82812C49.7005 9.82812 49.9401 9.77083 50.1172 9.65625C50.2995 9.54167 50.4297 9.38802 50.5078 9.19531C50.5859 9.0026 50.625 8.78385 50.625 8.53906ZM58.5703 2.1875L56.125 11.5312H53.7109L57.2656 0.15625H58.7734L58.5703 2.1875ZM60.5 11.5312L58.0391 2.1875L57.8125 0.15625H59.3438L62.9297 11.5312H60.5ZM60.5859 7.28906V9.1875H55.4531V7.28906H60.5859ZM68.8281 8.53906C68.8281 8.33594 68.8099 8.15104 68.7734 7.98438C68.737 7.81771 68.6589 7.66406 68.5391 7.52344C68.4245 7.38281 68.2552 7.24219 68.0312 7.10156C67.8125 6.96094 67.526 6.8151 67.1719 6.66406C66.75 6.48698 66.3411 6.29948 65.9453 6.10156C65.5495 5.89844 65.1927 5.66406 64.875 5.39844C64.5573 5.13281 64.3047 4.82031 64.1172 4.46094C63.9349 4.09635 63.8438 3.66927 63.8438 3.17969C63.8438 2.70052 63.9297 2.26562 64.1016 1.875C64.2786 1.48438 64.5286 1.15104 64.8516 0.875C65.1745 0.59375 65.5521 0.377604 65.9844 0.226562C66.4219 0.0755208 66.9089 0 67.4453 0C68.1745 0 68.8047 0.151042 69.3359 0.453125C69.8724 0.755208 70.2865 1.16927 70.5781 1.69531C70.875 2.22135 71.0234 2.82552 71.0234 3.50781H68.7422C68.7422 3.1849 68.6953 2.90104 68.6016 2.65625C68.513 2.40625 68.3698 2.21094 68.1719 2.07031C67.974 1.92969 67.7188 1.85938 67.4062 1.85938C67.1146 1.85938 66.8724 1.91927 66.6797 2.03906C66.4922 2.15365 66.3516 2.3125 66.2578 2.51562C66.1693 2.71354 66.125 2.9375 66.125 3.1875C66.125 3.375 66.1693 3.54427 66.2578 3.69531C66.3516 3.84115 66.4792 3.97396 66.6406 4.09375C66.8021 4.20833 66.9922 4.32031 67.2109 4.42969C67.4349 4.53906 67.6797 4.64583 67.9453 4.75C68.4609 4.95312 68.9167 5.17708 69.3125 5.42188C69.7083 5.66146 70.0391 5.93229 70.3047 6.23438C70.5703 6.53125 70.7708 6.86719 70.9062 7.24219C71.0417 7.61719 71.1094 8.04427 71.1094 8.52344C71.1094 8.9974 71.026 9.42969 70.8594 9.82031C70.6979 10.2057 70.4609 10.5391 70.1484 10.8203C69.8359 11.0964 69.4583 11.3099 69.0156 11.4609C68.5781 11.612 68.0885 11.6875 67.5469 11.6875C67.0208 11.6875 66.5234 11.6146 66.0547 11.4688C65.5859 11.3177 65.1719 11.0911 64.8125 10.7891C64.4583 10.4818 64.1797 10.0938 63.9766 9.625C63.7734 9.15104 63.6719 8.59115 63.6719 7.94531H65.9609C65.9609 8.28906 65.9948 8.58333 66.0625 8.82812C66.1302 9.06771 66.2344 9.26042 66.375 9.40625C66.5156 9.54688 66.6875 9.65365 66.8906 9.72656C67.099 9.79427 67.3359 9.82812 67.6016 9.82812C67.9036 9.82812 68.1432 9.77083 68.3203 9.65625C68.5026 9.54167 68.6328 9.38802 68.7109 9.19531C68.7891 9.0026 68.8281 8.78385 68.8281 8.53906Z" fill="#9BE9B9"/>
</svg>
