<svg width="82" height="16" viewBox="0 0 82 16" fill="none" xmlns="http://www.w3.org/2000/svg">
<path d="M4.57812 1.63281L1.46875 12H0L3.66406 0.625H4.58594L4.57812 1.63281ZM7.09375 12L3.98438 1.63281L3.96875 0.625H4.89844L8.5625 12H7.09375ZM7.09375 7.78906V9.02344H1.60938V7.78906H7.09375ZM11.3203 4.875V12H9.9375V3.54688H11.2734L11.3203 4.875ZM13.4219 3.5L13.4297 4.84375C13.3151 4.81771 13.2109 4.80208 13.1172 4.79688C13.0286 4.78646 12.9245 4.78125 12.8047 4.78125C12.5443 4.78125 12.3151 4.83333 12.1172 4.9375C11.9245 5.04167 11.7578 5.1875 11.6172 5.375C11.4766 5.5625 11.3646 5.78646 11.2812 6.04688C11.1979 6.30208 11.1406 6.58333 11.1094 6.89062L10.75 7.125C10.75 6.61458 10.7891 6.13542 10.8672 5.6875C10.9505 5.23958 11.0781 4.84375 11.25 4.5C11.4219 4.15104 11.6406 3.88021 11.9062 3.6875C12.1771 3.48958 12.5 3.39062 12.875 3.39062C12.9583 3.39062 13.0599 3.40365 13.1797 3.42969C13.3047 3.45052 13.3854 3.47396 13.4219 3.5ZM16.1953 5.22656V12H14.8203V3.54688H16.1172L16.1953 5.22656ZM15.9141 7.45312L15.2734 7.42969C15.2682 6.85156 15.3255 6.31771 15.4453 5.82812C15.5651 5.33333 15.7448 4.90365 15.9844 4.53906C16.2292 4.17448 16.5339 3.89323 16.8984 3.69531C17.2682 3.49219 17.6979 3.39062 18.1875 3.39062C18.5104 3.39062 18.8099 3.44792 19.0859 3.5625C19.3672 3.67188 19.612 3.84635 19.8203 4.08594C20.0286 4.32552 20.1901 4.63281 20.3047 5.00781C20.4245 5.38281 20.4844 5.83594 20.4844 6.36719V12H19.1016V6.4375C19.1016 5.99479 19.0417 5.64062 18.9219 5.375C18.8073 5.10938 18.6432 4.91667 18.4297 4.79688C18.2161 4.67188 17.9609 4.60938 17.6641 4.60938C17.3255 4.60938 17.0417 4.6849 16.8125 4.83594C16.5885 4.98698 16.4089 5.19531 16.2734 5.46094C16.1432 5.72656 16.0495 6.03125 15.9922 6.375C15.9401 6.71354 15.9141 7.07292 15.9141 7.45312ZM20.4688 6.65625L19.5469 6.95312C19.5417 6.48958 19.599 6.04427 19.7188 5.61719C19.8385 5.1901 20.0156 4.8099 20.25 4.47656C20.4896 4.14323 20.7865 3.88021 21.1406 3.6875C21.4948 3.48958 21.9062 3.39062 22.375 3.39062C22.7604 3.39062 23.1016 3.45052 23.3984 3.57031C23.6953 3.6901 23.9453 3.875 24.1484 4.125C24.3568 4.36979 24.513 4.6849 24.6172 5.07031C24.7214 5.45573 24.7734 5.91406 24.7734 6.44531V12H23.3906V6.42969C23.3906 5.95573 23.3307 5.58854 23.2109 5.32812C23.0964 5.0625 22.9323 4.8776 22.7188 4.77344C22.5052 4.66406 22.25 4.60938 21.9531 4.60938C21.7135 4.60938 21.5 4.66406 21.3125 4.77344C21.1302 4.88281 20.9766 5.03385 20.8516 5.22656C20.7266 5.41406 20.6302 5.63021 20.5625 5.875C20.5 6.11979 20.4688 6.38021 20.4688 6.65625ZM29.8828 12.1562C29.3776 12.1562 28.9219 12.0807 28.5156 11.9297C28.1094 11.7786 27.763 11.5495 27.4766 11.2422C27.1901 10.9297 26.9714 10.5365 26.8203 10.0625C26.6693 9.58854 26.5938 9.02865 26.5938 8.38281V7.42969C26.5938 6.6849 26.6797 6.05469 26.8516 5.53906C27.0286 5.02344 27.2656 4.60938 27.5625 4.29688C27.8594 3.97917 28.1953 3.75 28.5703 3.60938C28.9453 3.46354 29.3307 3.39062 29.7266 3.39062C30.2578 3.39062 30.7109 3.47656 31.0859 3.64844C31.4609 3.82031 31.7656 4.07552 32 4.41406C32.2344 4.7526 32.4062 5.16927 32.5156 5.66406C32.6302 6.15885 32.6875 6.72917 32.6875 7.375V8.17969H27.4062V7H31.3047V6.80469C31.2839 6.36719 31.224 5.98177 31.125 5.64844C31.0312 5.3151 30.875 5.05469 30.6562 4.86719C30.4375 4.67448 30.1276 4.57812 29.7266 4.57812C29.4714 4.57812 29.2344 4.6224 29.0156 4.71094C28.8021 4.79427 28.6172 4.94271 28.4609 5.15625C28.3099 5.36458 28.1901 5.65365 28.1016 6.02344C28.0182 6.39323 27.9766 6.86198 27.9766 7.42969V8.38281C27.9766 8.83594 28.0182 9.22656 28.1016 9.55469C28.1901 9.8776 28.3177 10.1458 28.4844 10.3594C28.6562 10.5677 28.8646 10.724 29.1094 10.8281C29.3594 10.9271 29.6432 10.9766 29.9609 10.9766C30.4245 10.9766 30.8073 10.888 31.1094 10.7109C31.4115 10.5286 31.6745 10.2969 31.8984 10.0156L32.625 10.8828C32.474 11.0964 32.276 11.3021 32.0312 11.5C31.7917 11.6927 31.4948 11.8516 31.1406 11.9766C30.7917 12.0964 30.3724 12.1562 29.8828 12.1562ZM42.1328 9.83594C42.1328 9.6224 42.0807 9.4349 41.9766 9.27344C41.8724 9.11198 41.7005 8.95573 41.4609 8.80469C41.2266 8.65365 40.9089 8.49219 40.5078 8.32031C40.1172 8.15885 39.7656 8 39.4531 7.84375C39.1458 7.68229 38.8854 7.50781 38.6719 7.32031C38.4583 7.13281 38.2943 6.91667 38.1797 6.67188C38.0703 6.42188 38.0156 6.1276 38.0156 5.78906C38.0156 5.45052 38.0781 5.13802 38.2031 4.85156C38.3333 4.5599 38.5156 4.30469 38.75 4.08594C38.9844 3.86719 39.2656 3.69792 39.5938 3.57812C39.9219 3.45312 40.2891 3.39062 40.6953 3.39062C41.2734 3.39062 41.7656 3.5026 42.1719 3.72656C42.5781 3.95052 42.888 4.25781 43.1016 4.64844C43.3203 5.03385 43.4297 5.46875 43.4297 5.95312H42.0547C42.0547 5.71875 42.0026 5.4974 41.8984 5.28906C41.7943 5.08073 41.6406 4.91146 41.4375 4.78125C41.2344 4.64583 40.987 4.57812 40.6953 4.57812C40.388 4.57812 40.138 4.63281 39.9453 4.74219C39.7526 4.85156 39.612 4.99479 39.5234 5.17188C39.4401 5.34375 39.3984 5.53385 39.3984 5.74219C39.3984 5.89844 39.4193 6.03385 39.4609 6.14844C39.5078 6.25781 39.5859 6.36198 39.6953 6.46094C39.8047 6.55469 39.9531 6.65365 40.1406 6.75781C40.3333 6.85677 40.5781 6.97135 40.875 7.10156C41.4479 7.32552 41.9297 7.55208 42.3203 7.78125C42.7109 8.01042 43.0078 8.27865 43.2109 8.58594C43.4141 8.89323 43.5156 9.27344 43.5156 9.72656C43.5156 10.0964 43.4479 10.4323 43.3125 10.7344C43.1823 11.0312 42.9948 11.2865 42.75 11.5C42.5052 11.7135 42.2109 11.8776 41.8672 11.9922C41.5286 12.1016 41.1484 12.1562 40.7266 12.1562C40.0911 12.1562 39.5521 12.0312 39.1094 11.7812C38.6719 11.526 38.3385 11.1953 38.1094 10.7891C37.8854 10.3776 37.7734 9.9375 37.7734 9.46875H39.1562C39.1719 9.86458 39.2604 10.1719 39.4219 10.3906C39.5885 10.6094 39.7891 10.7604 40.0234 10.8438C40.2578 10.9271 40.4922 10.9688 40.7266 10.9688C41.0339 10.9688 41.2917 10.9245 41.5 10.8359C41.7083 10.7422 41.8646 10.6094 41.9688 10.4375C42.0781 10.2656 42.1328 10.0651 42.1328 9.83594ZM49.6016 10.0469V3.54688H50.9844V12H49.6719L49.6016 10.0469ZM49.8594 8.26562L50.4062 8.25C50.4062 8.8125 50.3568 9.33333 50.2578 9.8125C50.1641 10.2865 50.0078 10.6979 49.7891 11.0469C49.5755 11.3958 49.2917 11.6693 48.9375 11.8672C48.5833 12.0599 48.1484 12.1562 47.6328 12.1562C47.2839 12.1562 46.9661 12.0964 46.6797 11.9766C46.3984 11.8568 46.1536 11.6719 45.9453 11.4219C45.7422 11.1719 45.5833 10.8464 45.4688 10.4453C45.3594 10.0443 45.3047 9.5625 45.3047 9V3.54688H46.6797V9.01562C46.6797 9.39583 46.7135 9.71094 46.7812 9.96094C46.849 10.2057 46.9401 10.401 47.0547 10.5469C47.1693 10.6875 47.2969 10.7865 47.4375 10.8438C47.5781 10.901 47.7214 10.9297 47.8672 10.9297C48.3568 10.9297 48.7474 10.8125 49.0391 10.5781C49.3307 10.3385 49.5391 10.0182 49.6641 9.61719C49.7943 9.21094 49.8594 8.76042 49.8594 8.26562ZM58.1172 5.17188V15.25H56.7344V3.54688H57.9922L58.1172 5.17188ZM62.8438 7.39062V8.17969C62.8438 8.84635 62.7812 9.42969 62.6562 9.92969C62.5365 10.4245 62.3568 10.8385 62.1172 11.1719C61.8828 11.5 61.5938 11.7474 61.25 11.9141C60.9062 12.0755 60.513 12.1562 60.0703 12.1562C59.6276 12.1562 59.2422 12.0729 58.9141 11.9062C58.5911 11.7344 58.3177 11.487 58.0938 11.1641C57.875 10.8411 57.7005 10.4531 57.5703 10C57.4453 9.54167 57.3594 9.02865 57.3125 8.46094V7.25781C57.3594 6.65885 57.4453 6.1224 57.5703 5.64844C57.6953 5.16927 57.8672 4.76302 58.0859 4.42969C58.3099 4.09115 58.5833 3.83333 58.9062 3.65625C59.2344 3.47917 59.6172 3.39062 60.0547 3.39062C60.5078 3.39062 60.9062 3.46875 61.25 3.625C61.599 3.78125 61.8906 4.02344 62.125 4.35156C62.3646 4.67448 62.5443 5.08854 62.6641 5.59375C62.7839 6.09375 62.8438 6.69271 62.8438 7.39062ZM61.4609 8.17969V7.39062C61.4609 6.92188 61.4245 6.51302 61.3516 6.16406C61.2839 5.8151 61.1745 5.52604 61.0234 5.29688C60.8724 5.06771 60.6823 4.89583 60.4531 4.78125C60.224 4.66667 59.9479 4.60938 59.625 4.60938C59.349 4.60938 59.1042 4.66667 58.8906 4.78125C58.6823 4.89583 58.5026 5.05208 58.3516 5.25C58.2005 5.44271 58.0755 5.66406 57.9766 5.91406C57.8776 6.15885 57.8047 6.41406 57.7578 6.67969V9.04688C57.8464 9.38021 57.9635 9.69531 58.1094 9.99219C58.2552 10.2839 58.4505 10.5208 58.6953 10.7031C58.9453 10.8854 59.2604 10.9766 59.6406 10.9766C59.9583 10.9766 60.2318 10.9193 60.4609 10.8047C60.6901 10.6901 60.8776 10.5182 61.0234 10.2891C61.1745 10.0547 61.2839 9.76302 61.3516 9.41406C61.4245 9.0599 61.4609 8.64844 61.4609 8.17969ZM66.1094 0V12H64.7344V0H66.1094ZM72.4375 10.5547V5.96875C72.4375 5.63542 72.3854 5.36719 72.2812 5.16406C72.1823 4.96094 72.0312 4.8125 71.8281 4.71875C71.6302 4.625 71.3802 4.57812 71.0781 4.57812C70.7865 4.57812 70.5339 4.63802 70.3203 4.75781C70.112 4.8776 69.9505 5.03646 69.8359 5.23438C69.7266 5.43229 69.6719 5.65104 69.6719 5.89062H68.2891C68.2891 5.58854 68.3542 5.28906 68.4844 4.99219C68.6198 4.69531 68.8125 4.42708 69.0625 4.1875C69.3125 3.94271 69.612 3.75 69.9609 3.60938C70.3151 3.46354 70.7109 3.39062 71.1484 3.39062C71.6693 3.39062 72.1302 3.47656 72.5312 3.64844C72.9323 3.8151 73.2474 4.08854 73.4766 4.46875C73.7057 4.84896 73.8203 5.35417 73.8203 5.98438V10.1562C73.8203 10.4375 73.8411 10.737 73.8828 11.0547C73.9297 11.3724 73.9948 11.6458 74.0781 11.875V12H72.6484C72.5807 11.8333 72.5286 11.612 72.4922 11.3359C72.4557 11.0547 72.4375 10.7943 72.4375 10.5547ZM72.6562 6.875L72.6719 7.89062H71.7109C71.3828 7.89062 71.0833 7.92708 70.8125 8C70.5469 8.07292 70.3177 8.17969 70.125 8.32031C69.9323 8.45573 69.7839 8.625 69.6797 8.82812C69.5807 9.03125 69.5312 9.26302 69.5312 9.52344C69.5312 9.86198 69.5781 10.1328 69.6719 10.3359C69.7656 10.5339 69.9062 10.6771 70.0938 10.7656C70.2812 10.8542 70.5182 10.8984 70.8047 10.8984C71.1536 10.8984 71.4609 10.8177 71.7266 10.6562C71.9922 10.4948 72.1979 10.2995 72.3438 10.0703C72.4948 9.84115 72.5651 9.6276 72.5547 9.42969L72.8594 10.0781C72.8385 10.2812 72.7708 10.5026 72.6562 10.7422C72.5469 10.9766 72.3932 11.2031 72.1953 11.4219C71.9974 11.6354 71.763 11.8125 71.4922 11.9531C71.2266 12.0885 70.9271 12.1562 70.5938 12.1562C70.1042 12.1562 69.6745 12.0625 69.3047 11.875C68.9401 11.6875 68.6562 11.4115 68.4531 11.0469C68.25 10.6823 68.1484 10.2318 68.1484 9.69531C68.1484 9.28906 68.2188 8.91406 68.3594 8.57031C68.5 8.22656 68.7083 7.92969 68.9844 7.67969C69.2604 7.42448 69.6068 7.22656 70.0234 7.08594C70.4453 6.94531 70.9323 6.875 71.4844 6.875H72.6562ZM77.3516 5.35156V12H75.9688V3.54688H77.2734L77.3516 5.35156ZM77.0156 7.45312L76.4531 7.42969C76.4479 6.85156 76.513 6.31771 76.6484 5.82812C76.7891 5.33333 76.987 4.90365 77.2422 4.53906C77.5026 4.17448 77.8125 3.89323 78.1719 3.69531C78.5312 3.49219 78.9297 3.39062 79.3672 3.39062C79.7109 3.39062 80.0234 3.44792 80.3047 3.5625C80.5859 3.67188 80.8255 3.84896 81.0234 4.09375C81.2214 4.33854 81.3724 4.65625 81.4766 5.04688C81.5859 5.43229 81.6406 5.90365 81.6406 6.46094V12H80.2578V6.44531C80.2578 6.0026 80.2083 5.64844 80.1094 5.38281C80.0156 5.11198 79.8698 4.91667 79.6719 4.79688C79.4792 4.67188 79.2344 4.60938 78.9375 4.60938C78.6667 4.60938 78.4141 4.6849 78.1797 4.83594C77.9453 4.98698 77.7396 5.19531 77.5625 5.46094C77.3906 5.72656 77.2552 6.03125 77.1562 6.375C77.0625 6.71354 77.0156 7.07292 77.0156 7.45312Z" fill="#1B1B1B"/>
</svg>
