<svg width="127" height="16" viewBox="0 0 127 16" fill="none" xmlns="http://www.w3.org/2000/svg">
<path d="M5.94531 8.54688H7.38281C7.34635 9.32812 7.1875 10.0026 6.90625 10.5703C6.63021 11.1328 6.22656 11.5651 5.69531 11.8672C5.16927 12.1693 4.51042 12.3203 3.71875 12.3203C3.15104 12.3203 2.63802 12.2083 2.17969 11.9844C1.72135 11.7604 1.32812 11.4401 1 11.0234C0.677083 10.6016 0.429688 10.0964 0.257812 9.50781C0.0859375 8.91927 0 8.25781 0 7.52344V5.42188C0 4.69271 0.0859375 4.03385 0.257812 3.44531C0.434896 2.85677 0.6875 2.35417 1.01562 1.9375C1.34896 1.51562 1.7526 1.19271 2.22656 0.96875C2.70573 0.744792 3.2474 0.632812 3.85156 0.632812C4.59115 0.632812 5.21615 0.78125 5.72656 1.07812C6.24219 1.36979 6.63802 1.79948 6.91406 2.36719C7.19531 2.92969 7.35156 3.61979 7.38281 4.4375H5.94531C5.90885 3.83854 5.8151 3.35156 5.66406 2.97656C5.51302 2.59635 5.28906 2.31771 4.99219 2.14062C4.70052 1.95833 4.32031 1.86719 3.85156 1.86719C3.4349 1.86719 3.07292 1.95052 2.76562 2.11719C2.46354 2.28385 2.21354 2.52344 2.01562 2.83594C1.82292 3.14323 1.67708 3.51562 1.57812 3.95312C1.48438 4.38542 1.4375 4.86979 1.4375 5.40625V7.52344C1.4375 8.02344 1.47656 8.48958 1.55469 8.92188C1.63802 9.35417 1.76823 9.73438 1.94531 10.0625C2.1276 10.3854 2.36458 10.638 2.65625 10.8203C2.94792 11.0026 3.30208 11.0938 3.71875 11.0938C4.24479 11.0938 4.66146 11.0078 4.96875 10.8359C5.27604 10.6641 5.5026 10.3906 5.64844 10.0156C5.79948 9.64062 5.89844 9.15104 5.94531 8.54688ZM8.85156 8.34375V7.53906C8.85156 6.88281 8.9349 6.30729 9.10156 5.8125C9.26823 5.3125 9.5 4.89583 9.79688 4.5625C10.0938 4.22917 10.4401 3.97917 10.8359 3.8125C11.2318 3.64062 11.6562 3.55469 12.1094 3.55469C12.5729 3.55469 13.0026 3.64062 13.3984 3.8125C13.7943 3.97917 14.1406 4.22917 14.4375 4.5625C14.7396 4.89583 14.974 5.3125 15.1406 5.8125C15.3073 6.30729 15.3906 6.88281 15.3906 7.53906V8.34375C15.3906 9 15.3073 9.57812 15.1406 10.0781C14.974 10.5729 14.7422 10.987 14.4453 11.3203C14.1484 11.6536 13.8021 11.9036 13.4062 12.0703C13.0104 12.237 12.5833 12.3203 12.125 12.3203C11.6667 12.3203 11.2396 12.237 10.8438 12.0703C10.4479 11.9036 10.099 11.6536 9.79688 11.3203C9.5 10.987 9.26823 10.5729 9.10156 10.0781C8.9349 9.57812 8.85156 9 8.85156 8.34375ZM10.2344 7.53906V8.34375C10.2344 8.80729 10.2812 9.21354 10.375 9.5625C10.4688 9.91146 10.6016 10.2031 10.7734 10.4375C10.9453 10.6719 11.1458 10.849 11.375 10.9688C11.6042 11.0833 11.8542 11.1406 12.125 11.1406C12.4375 11.1406 12.7109 11.0833 12.9453 10.9688C13.1849 10.849 13.3828 10.6719 13.5391 10.4375C13.6953 10.2031 13.8125 9.91146 13.8906 9.5625C13.9688 9.21354 14.0078 8.80729 14.0078 8.34375V7.53906C14.0078 7.07552 13.9609 6.67188 13.8672 6.32812C13.7734 5.97917 13.6406 5.6875 13.4688 5.45312C13.2969 5.21354 13.0938 5.03646 12.8594 4.92188C12.6302 4.80208 12.3802 4.74219 12.1094 4.74219C11.8438 4.74219 11.5964 4.80208 11.3672 4.92188C11.138 5.03646 10.9375 5.21354 10.7656 5.45312C10.599 5.6875 10.4688 5.97917 10.375 6.32812C10.2812 6.67188 10.2344 7.07552 10.2344 7.53906ZM18.5547 5.51562V12.1641H17.1719V3.71094H18.4766L18.5547 5.51562ZM18.2188 7.61719L17.6562 7.59375C17.651 7.01562 17.7161 6.48177 17.8516 5.99219C17.9922 5.4974 18.1901 5.06771 18.4453 4.70312C18.7057 4.33854 19.0156 4.05729 19.375 3.85938C19.7344 3.65625 20.1328 3.55469 20.5703 3.55469C20.9141 3.55469 21.2266 3.61198 21.5078 3.72656C21.7891 3.83594 22.0286 4.01302 22.2266 4.25781C22.4245 4.5026 22.5755 4.82031 22.6797 5.21094C22.7891 5.59635 22.8438 6.06771 22.8438 6.625V12.1641H21.4609V6.60938C21.4609 6.16667 21.4115 5.8125 21.3125 5.54688C21.2188 5.27604 21.0729 5.08073 20.875 4.96094C20.6823 4.83594 20.4375 4.77344 20.1406 4.77344C19.8698 4.77344 19.6172 4.84896 19.3828 5C19.1484 5.15104 18.9427 5.35938 18.7656 5.625C18.5938 5.89062 18.4583 6.19531 18.3594 6.53906C18.2656 6.8776 18.2188 7.23698 18.2188 7.61719ZM26.9141 12.1641H25.5312V2.82031C25.5312 2.21094 25.6276 1.69792 25.8203 1.28125C26.0182 0.859375 26.2969 0.541667 26.6562 0.328125C27.0208 0.109375 27.4531 0 27.9531 0C28.0938 0 28.2344 0.0104167 28.375 0.03125C28.5208 0.0520833 28.6589 0.0833333 28.7891 0.125L28.7266 1.30469C28.6432 1.27865 28.5417 1.26042 28.4219 1.25C28.3073 1.23958 28.1979 1.23438 28.0938 1.23438C27.8438 1.23438 27.6302 1.29688 27.4531 1.42188C27.276 1.54167 27.1406 1.71875 27.0469 1.95312C26.9583 2.1875 26.9141 2.47656 26.9141 2.82031V12.1641ZM28.3516 3.71094V4.82031H24.4297V3.71094H28.3516ZM31.4688 3.71094V12.1641H30.0938V3.71094H31.4688ZM30.0156 1.46875C30.0156 1.23438 30.0807 1.03646 30.2109 0.875C30.3411 0.713542 30.5365 0.632812 30.7969 0.632812C31.0573 0.632812 31.2526 0.713542 31.3828 0.875C31.5182 1.03646 31.5859 1.23438 31.5859 1.46875C31.5859 1.69271 31.5182 1.88542 31.3828 2.04688C31.2526 2.20312 31.0573 2.28125 30.7969 2.28125C30.5365 2.28125 30.3411 2.20312 30.2109 2.04688C30.0807 1.88542 30.0156 1.69271 30.0156 1.46875ZM35.0391 5.03906V12.1641H33.6562V3.71094H34.9922L35.0391 5.03906ZM37.1406 3.66406L37.1484 5.00781C37.0339 4.98177 36.9297 4.96615 36.8359 4.96094C36.7474 4.95052 36.6432 4.94531 36.5234 4.94531C36.263 4.94531 36.0339 4.9974 35.8359 5.10156C35.6432 5.20573 35.4766 5.35156 35.3359 5.53906C35.1953 5.72656 35.0833 5.95052 35 6.21094C34.9167 6.46615 34.8594 6.7474 34.8281 7.05469L34.4688 7.28906C34.4688 6.77865 34.5078 6.29948 34.5859 5.85156C34.6693 5.40365 34.7969 5.00781 34.9688 4.66406C35.1406 4.3151 35.3594 4.04427 35.625 3.85156C35.8958 3.65365 36.2188 3.55469 36.5938 3.55469C36.6771 3.55469 36.7786 3.56771 36.8984 3.59375C37.0234 3.61458 37.1042 3.63802 37.1406 3.66406ZM39.9141 5.39062V12.1641H38.5391V3.71094H39.8359L39.9141 5.39062ZM39.6328 7.61719L38.9922 7.59375C38.987 7.01562 39.0443 6.48177 39.1641 5.99219C39.2839 5.4974 39.4635 5.06771 39.7031 4.70312C39.9479 4.33854 40.2526 4.05729 40.6172 3.85938C40.987 3.65625 41.4167 3.55469 41.9062 3.55469C42.2292 3.55469 42.5286 3.61198 42.8047 3.72656C43.0859 3.83594 43.3307 4.01042 43.5391 4.25C43.7474 4.48958 43.9089 4.79688 44.0234 5.17188C44.1432 5.54688 44.2031 6 44.2031 6.53125V12.1641H42.8203V6.60156C42.8203 6.15885 42.7604 5.80469 42.6406 5.53906C42.526 5.27344 42.362 5.08073 42.1484 4.96094C41.9349 4.83594 41.6797 4.77344 41.3828 4.77344C41.0443 4.77344 40.7604 4.84896 40.5312 5C40.3073 5.15104 40.1276 5.35938 39.9922 5.625C39.862 5.89062 39.7682 6.19531 39.7109 6.53906C39.6589 6.8776 39.6328 7.23698 39.6328 7.61719ZM44.1875 6.82031L43.2656 7.11719C43.2604 6.65365 43.3177 6.20833 43.4375 5.78125C43.5573 5.35417 43.7344 4.97396 43.9688 4.64062C44.2083 4.30729 44.5052 4.04427 44.8594 3.85156C45.2135 3.65365 45.625 3.55469 46.0938 3.55469C46.4792 3.55469 46.8203 3.61458 47.1172 3.73438C47.4141 3.85417 47.6641 4.03906 47.8672 4.28906C48.0755 4.53385 48.2318 4.84896 48.3359 5.23438C48.4401 5.61979 48.4922 6.07812 48.4922 6.60938V12.1641H47.1094V6.59375C47.1094 6.11979 47.0495 5.7526 46.9297 5.49219C46.8151 5.22656 46.651 5.04167 46.4375 4.9375C46.224 4.82812 45.9688 4.77344 45.6719 4.77344C45.4323 4.77344 45.2188 4.82812 45.0312 4.9375C44.849 5.04688 44.6953 5.19792 44.5703 5.39062C44.4453 5.57812 44.349 5.79427 44.2812 6.03906C44.2188 6.28385 44.1875 6.54427 44.1875 6.82031ZM53.6016 12.3203C53.0964 12.3203 52.6406 12.2448 52.2344 12.0938C51.8281 11.9427 51.4818 11.7135 51.1953 11.4062C50.9089 11.0938 50.6901 10.7005 50.5391 10.2266C50.388 9.7526 50.3125 9.19271 50.3125 8.54688V7.59375C50.3125 6.84896 50.3984 6.21875 50.5703 5.70312C50.7474 5.1875 50.9844 4.77344 51.2812 4.46094C51.5781 4.14323 51.9141 3.91406 52.2891 3.77344C52.6641 3.6276 53.0495 3.55469 53.4453 3.55469C53.9766 3.55469 54.4297 3.64062 54.8047 3.8125C55.1797 3.98438 55.4844 4.23958 55.7188 4.57812C55.9531 4.91667 56.125 5.33333 56.2344 5.82812C56.349 6.32292 56.4062 6.89323 56.4062 7.53906V8.34375H51.125V7.16406H55.0234V6.96875C55.0026 6.53125 54.9427 6.14583 54.8438 5.8125C54.75 5.47917 54.5938 5.21875 54.375 5.03125C54.1562 4.83854 53.8464 4.74219 53.4453 4.74219C53.1901 4.74219 52.9531 4.78646 52.7344 4.875C52.5208 4.95833 52.3359 5.10677 52.1797 5.32031C52.0286 5.52865 51.9089 5.81771 51.8203 6.1875C51.737 6.55729 51.6953 7.02604 51.6953 7.59375V8.54688C51.6953 9 51.737 9.39062 51.8203 9.71875C51.9089 10.0417 52.0365 10.3099 52.2031 10.5234C52.375 10.7318 52.5833 10.888 52.8281 10.9922C53.0781 11.0911 53.362 11.1406 53.6797 11.1406C54.1432 11.1406 54.526 11.0521 54.8281 10.875C55.1302 10.6927 55.3932 10.4609 55.6172 10.1797L56.3438 11.0469C56.1927 11.2604 55.9948 11.4661 55.75 11.6641C55.5104 11.8568 55.2135 12.0156 54.8594 12.1406C54.5104 12.2604 54.0911 12.3203 53.6016 12.3203ZM65.8516 10C65.8516 9.78646 65.7995 9.59896 65.6953 9.4375C65.5911 9.27604 65.4193 9.11979 65.1797 8.96875C64.9453 8.81771 64.6276 8.65625 64.2266 8.48438C63.8359 8.32292 63.4844 8.16406 63.1719 8.00781C62.8646 7.84635 62.6042 7.67188 62.3906 7.48438C62.1771 7.29688 62.013 7.08073 61.8984 6.83594C61.7891 6.58594 61.7344 6.29167 61.7344 5.95312C61.7344 5.61458 61.7969 5.30208 61.9219 5.01562C62.0521 4.72396 62.2344 4.46875 62.4688 4.25C62.7031 4.03125 62.9844 3.86198 63.3125 3.74219C63.6406 3.61719 64.0078 3.55469 64.4141 3.55469C64.9922 3.55469 65.4844 3.66667 65.8906 3.89062C66.2969 4.11458 66.6068 4.42188 66.8203 4.8125C67.0391 5.19792 67.1484 5.63281 67.1484 6.11719H65.7734C65.7734 5.88281 65.7214 5.66146 65.6172 5.45312C65.513 5.24479 65.3594 5.07552 65.1562 4.94531C64.9531 4.8099 64.7057 4.74219 64.4141 4.74219C64.1068 4.74219 63.8568 4.79688 63.6641 4.90625C63.4714 5.01562 63.3307 5.15885 63.2422 5.33594C63.1589 5.50781 63.1172 5.69792 63.1172 5.90625C63.1172 6.0625 63.138 6.19792 63.1797 6.3125C63.2266 6.42188 63.3047 6.52604 63.4141 6.625C63.5234 6.71875 63.6719 6.81771 63.8594 6.92188C64.0521 7.02083 64.2969 7.13542 64.5938 7.26562C65.1667 7.48958 65.6484 7.71615 66.0391 7.94531C66.4297 8.17448 66.7266 8.44271 66.9297 8.75C67.1328 9.05729 67.2344 9.4375 67.2344 9.89062C67.2344 10.2604 67.1667 10.5964 67.0312 10.8984C66.901 11.1953 66.7135 11.4505 66.4688 11.6641C66.224 11.8776 65.9297 12.0417 65.5859 12.1562C65.2474 12.2656 64.8672 12.3203 64.4453 12.3203C63.8099 12.3203 63.2708 12.1953 62.8281 11.9453C62.3906 11.6901 62.0573 11.3594 61.8281 10.9531C61.6042 10.5417 61.4922 10.1016 61.4922 9.63281H62.875C62.8906 10.0286 62.9792 10.3359 63.1406 10.5547C63.3073 10.7734 63.5078 10.9245 63.7422 11.0078C63.9766 11.0911 64.2109 11.1328 64.4453 11.1328C64.7526 11.1328 65.0104 11.0885 65.2188 11C65.4271 10.9062 65.5833 10.7734 65.6875 10.6016C65.7969 10.4297 65.8516 10.2292 65.8516 10ZM73.3203 10.2109V3.71094H74.7031V12.1641H73.3906L73.3203 10.2109ZM73.5781 8.42969L74.125 8.41406C74.125 8.97656 74.0755 9.4974 73.9766 9.97656C73.8828 10.4505 73.7266 10.862 73.5078 11.2109C73.2943 11.5599 73.0104 11.8333 72.6562 12.0312C72.3021 12.224 71.8672 12.3203 71.3516 12.3203C71.0026 12.3203 70.6849 12.2604 70.3984 12.1406C70.1172 12.0208 69.8724 11.8359 69.6641 11.5859C69.4609 11.3359 69.3021 11.0104 69.1875 10.6094C69.0781 10.2083 69.0234 9.72656 69.0234 9.16406V3.71094H70.3984V9.17969C70.3984 9.5599 70.4323 9.875 70.5 10.125C70.5677 10.3698 70.6589 10.5651 70.7734 10.7109C70.888 10.8516 71.0156 10.9505 71.1562 11.0078C71.2969 11.0651 71.4401 11.0938 71.5859 11.0938C72.0755 11.0938 72.4661 10.9766 72.7578 10.7422C73.0495 10.5026 73.2578 10.1823 73.3828 9.78125C73.513 9.375 73.5781 8.92448 73.5781 8.42969ZM83.3828 11.1406C83.6589 11.1406 83.9089 11.0859 84.1328 10.9766C84.362 10.862 84.5495 10.6849 84.6953 10.4453C84.8411 10.2005 84.9245 9.88281 84.9453 9.49219H86.2422C86.2214 10.0547 86.0781 10.5495 85.8125 10.9766C85.5521 11.3984 85.2083 11.7292 84.7812 11.9688C84.3594 12.2031 83.8932 12.3203 83.3828 12.3203C82.8359 12.3203 82.3594 12.2318 81.9531 12.0547C81.5521 11.8776 81.2188 11.6224 80.9531 11.2891C80.6927 10.9505 80.4974 10.5417 80.3672 10.0625C80.237 9.57812 80.1719 9.02865 80.1719 8.41406V7.46094C80.1719 6.84635 80.237 6.29948 80.3672 5.82031C80.4974 5.33594 80.6927 4.92708 80.9531 4.59375C81.2188 4.25521 81.5521 3.9974 81.9531 3.82031C82.3594 3.64323 82.8359 3.55469 83.3828 3.55469C83.9557 3.55469 84.4505 3.67708 84.8672 3.92188C85.2891 4.16146 85.6172 4.51042 85.8516 4.96875C86.0911 5.42188 86.2214 5.97135 86.2422 6.61719H84.9453C84.9245 6.20052 84.849 5.85417 84.7188 5.57812C84.5885 5.29688 84.4115 5.08854 84.1875 4.95312C83.9635 4.8125 83.6953 4.74219 83.3828 4.74219C83.0182 4.74219 82.7161 4.80729 82.4766 4.9375C82.2422 5.0625 82.0573 5.24479 81.9219 5.48438C81.7865 5.72396 81.6901 6.01042 81.6328 6.34375C81.5807 6.67708 81.5547 7.04948 81.5547 7.46094V8.41406C81.5547 8.82552 81.5807 9.20052 81.6328 9.53906C81.6901 9.8724 81.7839 10.1589 81.9141 10.3984C82.0495 10.638 82.237 10.8229 82.4766 10.9531C82.7161 11.0781 83.0182 11.1406 83.3828 11.1406ZM87.5547 8.34375V7.53906C87.5547 6.88281 87.638 6.30729 87.8047 5.8125C87.9714 5.3125 88.2031 4.89583 88.5 4.5625C88.7969 4.22917 89.1432 3.97917 89.5391 3.8125C89.9349 3.64062 90.3594 3.55469 90.8125 3.55469C91.276 3.55469 91.7057 3.64062 92.1016 3.8125C92.4974 3.97917 92.8438 4.22917 93.1406 4.5625C93.4427 4.89583 93.6771 5.3125 93.8438 5.8125C94.0104 6.30729 94.0938 6.88281 94.0938 7.53906V8.34375C94.0938 9 94.0104 9.57812 93.8438 10.0781C93.6771 10.5729 93.4453 10.987 93.1484 11.3203C92.8516 11.6536 92.5052 11.9036 92.1094 12.0703C91.7135 12.237 91.2865 12.3203 90.8281 12.3203C90.3698 12.3203 89.9427 12.237 89.5469 12.0703C89.151 11.9036 88.8021 11.6536 88.5 11.3203C88.2031 10.987 87.9714 10.5729 87.8047 10.0781C87.638 9.57812 87.5547 9 87.5547 8.34375ZM88.9375 7.53906V8.34375C88.9375 8.80729 88.9844 9.21354 89.0781 9.5625C89.1719 9.91146 89.3047 10.2031 89.4766 10.4375C89.6484 10.6719 89.849 10.849 90.0781 10.9688C90.3073 11.0833 90.5573 11.1406 90.8281 11.1406C91.1406 11.1406 91.4141 11.0833 91.6484 10.9688C91.888 10.849 92.0859 10.6719 92.2422 10.4375C92.3984 10.2031 92.5156 9.91146 92.5938 9.5625C92.6719 9.21354 92.7109 8.80729 92.7109 8.34375V7.53906C92.7109 7.07552 92.6641 6.67188 92.5703 6.32812C92.4766 5.97917 92.3438 5.6875 92.1719 5.45312C92 5.21354 91.7969 5.03646 91.5625 4.92188C91.3333 4.80208 91.0833 4.74219 90.8125 4.74219C90.5469 4.74219 90.2995 4.80208 90.0703 4.92188C89.8411 5.03646 89.6406 5.21354 89.4688 5.45312C89.3021 5.6875 89.1719 5.97917 89.0781 6.32812C88.9844 6.67188 88.9375 7.07552 88.9375 7.53906ZM97.2578 5.39062V12.1641H95.8828V3.71094H97.1797L97.2578 5.39062ZM96.9766 7.61719L96.3359 7.59375C96.3307 7.01562 96.388 6.48177 96.5078 5.99219C96.6276 5.4974 96.8073 5.06771 97.0469 4.70312C97.2917 4.33854 97.5964 4.05729 97.9609 3.85938C98.3307 3.65625 98.7604 3.55469 99.25 3.55469C99.5729 3.55469 99.8724 3.61198 100.148 3.72656C100.43 3.83594 100.674 4.01042 100.883 4.25C101.091 4.48958 101.253 4.79688 101.367 5.17188C101.487 5.54688 101.547 6 101.547 6.53125V12.1641H100.164V6.60156C100.164 6.15885 100.104 5.80469 99.9844 5.53906C99.8698 5.27344 99.7057 5.08073 99.4922 4.96094C99.2786 4.83594 99.0234 4.77344 98.7266 4.77344C98.388 4.77344 98.1042 4.84896 97.875 5C97.651 5.15104 97.4714 5.35938 97.3359 5.625C97.2057 5.89062 97.112 6.19531 97.0547 6.53906C97.0026 6.8776 96.9766 7.23698 96.9766 7.61719ZM101.531 6.82031L100.609 7.11719C100.604 6.65365 100.661 6.20833 100.781 5.78125C100.901 5.35417 101.078 4.97396 101.312 4.64062C101.552 4.30729 101.849 4.04427 102.203 3.85156C102.557 3.65365 102.969 3.55469 103.438 3.55469C103.823 3.55469 104.164 3.61458 104.461 3.73438C104.758 3.85417 105.008 4.03906 105.211 4.28906C105.419 4.53385 105.576 4.84896 105.68 5.23438C105.784 5.61979 105.836 6.07812 105.836 6.60938V12.1641H104.453V6.59375C104.453 6.11979 104.393 5.7526 104.273 5.49219C104.159 5.22656 103.995 5.04167 103.781 4.9375C103.568 4.82812 103.312 4.77344 103.016 4.77344C102.776 4.77344 102.562 4.82812 102.375 4.9375C102.193 5.04688 102.039 5.19792 101.914 5.39062C101.789 5.57812 101.693 5.79427 101.625 6.03906C101.562 6.28385 101.531 6.54427 101.531 6.82031ZM109.305 5.33594V15.4141H107.922V3.71094H109.18L109.305 5.33594ZM114.031 7.55469V8.34375C114.031 9.01042 113.969 9.59375 113.844 10.0938C113.724 10.5885 113.544 11.0026 113.305 11.3359C113.07 11.6641 112.781 11.9115 112.438 12.0781C112.094 12.2396 111.701 12.3203 111.258 12.3203C110.815 12.3203 110.43 12.237 110.102 12.0703C109.779 11.8984 109.505 11.651 109.281 11.3281C109.062 11.0052 108.888 10.6172 108.758 10.1641C108.633 9.70573 108.547 9.19271 108.5 8.625V7.42188C108.547 6.82292 108.633 6.28646 108.758 5.8125C108.883 5.33333 109.055 4.92708 109.273 4.59375C109.497 4.25521 109.771 3.9974 110.094 3.82031C110.422 3.64323 110.805 3.55469 111.242 3.55469C111.695 3.55469 112.094 3.63281 112.438 3.78906C112.786 3.94531 113.078 4.1875 113.312 4.51562C113.552 4.83854 113.732 5.2526 113.852 5.75781C113.971 6.25781 114.031 6.85677 114.031 7.55469ZM112.648 8.34375V7.55469C112.648 7.08594 112.612 6.67708 112.539 6.32812C112.471 5.97917 112.362 5.6901 112.211 5.46094C112.06 5.23177 111.87 5.0599 111.641 4.94531C111.411 4.83073 111.135 4.77344 110.812 4.77344C110.536 4.77344 110.292 4.83073 110.078 4.94531C109.87 5.0599 109.69 5.21615 109.539 5.41406C109.388 5.60677 109.263 5.82812 109.164 6.07812C109.065 6.32292 108.992 6.57812 108.945 6.84375V9.21094C109.034 9.54427 109.151 9.85938 109.297 10.1562C109.443 10.4479 109.638 10.6849 109.883 10.8672C110.133 11.0495 110.448 11.1406 110.828 11.1406C111.146 11.1406 111.419 11.0833 111.648 10.9688C111.878 10.8542 112.065 10.6823 112.211 10.4531C112.362 10.2188 112.471 9.92708 112.539 9.57812C112.612 9.22396 112.648 8.8125 112.648 8.34375ZM117.195 5.03906V12.1641H115.812V3.71094H117.148L117.195 5.03906ZM119.297 3.66406L119.305 5.00781C119.19 4.98177 119.086 4.96615 118.992 4.96094C118.904 4.95052 118.799 4.94531 118.68 4.94531C118.419 4.94531 118.19 4.9974 117.992 5.10156C117.799 5.20573 117.633 5.35156 117.492 5.53906C117.352 5.72656 117.24 5.95052 117.156 6.21094C117.073 6.46615 117.016 6.7474 116.984 7.05469L116.625 7.28906C116.625 6.77865 116.664 6.29948 116.742 5.85156C116.826 5.40365 116.953 5.00781 117.125 4.66406C117.297 4.3151 117.516 4.04427 117.781 3.85156C118.052 3.65365 118.375 3.55469 118.75 3.55469C118.833 3.55469 118.935 3.56771 119.055 3.59375C119.18 3.61458 119.26 3.63802 119.297 3.66406ZM124.516 10.7188V6.13281C124.516 5.79948 124.464 5.53125 124.359 5.32812C124.26 5.125 124.109 4.97656 123.906 4.88281C123.708 4.78906 123.458 4.74219 123.156 4.74219C122.865 4.74219 122.612 4.80208 122.398 4.92188C122.19 5.04167 122.029 5.20052 121.914 5.39844C121.805 5.59635 121.75 5.8151 121.75 6.05469H120.367C120.367 5.7526 120.432 5.45312 120.562 5.15625C120.698 4.85938 120.891 4.59115 121.141 4.35156C121.391 4.10677 121.69 3.91406 122.039 3.77344C122.393 3.6276 122.789 3.55469 123.227 3.55469C123.747 3.55469 124.208 3.64062 124.609 3.8125C125.01 3.97917 125.326 4.2526 125.555 4.63281C125.784 5.01302 125.898 5.51823 125.898 6.14844V10.3203C125.898 10.6016 125.919 10.901 125.961 11.2188C126.008 11.5365 126.073 11.8099 126.156 12.0391V12.1641H124.727C124.659 11.9974 124.607 11.776 124.57 11.5C124.534 11.2188 124.516 10.9583 124.516 10.7188ZM124.734 7.03906L124.75 8.05469H123.789C123.461 8.05469 123.161 8.09115 122.891 8.16406C122.625 8.23698 122.396 8.34375 122.203 8.48438C122.01 8.61979 121.862 8.78906 121.758 8.99219C121.659 9.19531 121.609 9.42708 121.609 9.6875C121.609 10.026 121.656 10.2969 121.75 10.5C121.844 10.6979 121.984 10.8411 122.172 10.9297C122.359 11.0182 122.596 11.0625 122.883 11.0625C123.232 11.0625 123.539 10.9818 123.805 10.8203C124.07 10.6589 124.276 10.4635 124.422 10.2344C124.573 10.0052 124.643 9.79167 124.633 9.59375L124.938 10.2422C124.917 10.4453 124.849 10.6667 124.734 10.9062C124.625 11.1406 124.471 11.3672 124.273 11.5859C124.076 11.7995 123.841 11.9766 123.57 12.1172C123.305 12.2526 123.005 12.3203 122.672 12.3203C122.182 12.3203 121.753 12.2266 121.383 12.0391C121.018 11.8516 120.734 11.5755 120.531 11.2109C120.328 10.8464 120.227 10.3958 120.227 9.85938C120.227 9.45312 120.297 9.07812 120.438 8.73438C120.578 8.39062 120.786 8.09375 121.062 7.84375C121.339 7.58854 121.685 7.39062 122.102 7.25C122.523 7.10938 123.01 7.03906 123.562 7.03906H124.734Z" fill="#1B1B1B"/>
</svg>
