<svg width="110" height="16" viewBox="0 0 110 16" fill="none" xmlns="http://www.w3.org/2000/svg">
<path d="M1.4375 0.625V12H0V0.625H1.4375ZM5.13281 5.35156V12H3.75V3.54688H5.05469L5.13281 5.35156ZM4.79688 7.45312L4.23438 7.42969C4.22917 6.85156 4.29427 6.31771 4.42969 5.82812C4.57031 5.33333 4.76823 4.90365 5.02344 4.53906C5.28385 4.17448 5.59375 3.89323 5.95312 3.69531C6.3125 3.49219 6.71094 3.39062 7.14844 3.39062C7.49219 3.39062 7.80469 3.44792 8.08594 3.5625C8.36719 3.67188 8.60677 3.84896 8.80469 4.09375C9.0026 4.33854 9.15365 4.65625 9.25781 5.04688C9.36719 5.43229 9.42188 5.90365 9.42188 6.46094V12H8.03906V6.44531C8.03906 6.0026 7.98958 5.64844 7.89062 5.38281C7.79688 5.11198 7.65104 4.91667 7.45312 4.79688C7.26042 4.67188 7.01562 4.60938 6.71875 4.60938C6.44792 4.60938 6.19531 4.6849 5.96094 4.83594C5.72656 4.98698 5.52083 5.19531 5.34375 5.46094C5.17188 5.72656 5.03646 6.03125 4.9375 6.375C4.84375 6.71354 4.79688 7.07292 4.79688 7.45312ZM16.0781 3.54688H17.3203V12.0703C17.3203 12.8151 17.1901 13.4297 16.9297 13.9141C16.6745 14.3984 16.3177 14.7552 15.8594 14.9844C15.401 15.2188 14.8724 15.3359 14.2734 15.3359C14.0599 15.3359 13.7917 15.2969 13.4688 15.2188C13.1458 15.1406 12.8229 15.0208 12.5 14.8594C12.1771 14.7031 11.9115 14.5052 11.7031 14.2656L12.2734 13.3047C12.5703 13.6068 12.8854 13.8229 13.2188 13.9531C13.5521 14.0833 13.8698 14.1484 14.1719 14.1484C14.5312 14.1484 14.8438 14.0833 15.1094 13.9531C15.375 13.8229 15.5807 13.6094 15.7266 13.3125C15.8724 13.0208 15.9453 12.6302 15.9453 12.1406V5.40625L16.0781 3.54688ZM11.2188 8.17969V7.39062C11.2188 6.69271 11.2839 6.09375 11.4141 5.59375C11.5443 5.08854 11.7318 4.67448 11.9766 4.35156C12.2266 4.02344 12.526 3.78125 12.875 3.625C13.224 3.46875 13.6146 3.39062 14.0469 3.39062C14.4844 3.39062 14.862 3.47917 15.1797 3.65625C15.4974 3.83333 15.7604 4.09115 15.9688 4.42969C16.1823 4.76302 16.349 5.16927 16.4688 5.64844C16.5938 6.1224 16.6797 6.65885 16.7266 7.25781V8.3125C16.6797 8.90625 16.5938 9.4401 16.4688 9.91406C16.349 10.388 16.1797 10.7917 15.9609 11.125C15.7474 11.4583 15.4818 11.7135 15.1641 11.8906C14.8464 12.0677 14.4688 12.1562 14.0312 12.1562C13.6042 12.1562 13.2188 12.0755 12.875 11.9141C12.5312 11.7474 12.2344 11.5 11.9844 11.1719C11.7396 10.8385 11.5495 10.4245 11.4141 9.92969C11.2839 9.42969 11.2188 8.84635 11.2188 8.17969ZM12.6016 7.39062V8.17969C12.6016 8.64844 12.6354 9.05729 12.7031 9.40625C12.7708 9.75 12.875 10.0365 13.0156 10.2656C13.1615 10.4896 13.3464 10.6562 13.5703 10.7656C13.7995 10.875 14.0729 10.9297 14.3906 10.9297C14.776 10.9297 15.0911 10.8359 15.3359 10.6484C15.5807 10.4609 15.776 10.2135 15.9219 9.90625C16.0729 9.59375 16.1927 9.25781 16.2812 8.89844V6.67969C16.2292 6.41406 16.1536 6.15885 16.0547 5.91406C15.9609 5.66406 15.8385 5.44271 15.6875 5.25C15.5365 5.05208 15.3542 4.89583 15.1406 4.78125C14.9323 4.66667 14.6875 4.60938 14.4062 4.60938C14.0885 4.60938 13.8151 4.66667 13.5859 4.78125C13.3568 4.89583 13.1693 5.06771 13.0234 5.29688C12.8776 5.52604 12.7708 5.8151 12.7031 6.16406C12.6354 6.51302 12.6016 6.92188 12.6016 7.39062ZM20.7734 4.875V12H19.3906V3.54688H20.7266L20.7734 4.875ZM22.875 3.5L22.8828 4.84375C22.7682 4.81771 22.6641 4.80208 22.5703 4.79688C22.4818 4.78646 22.3776 4.78125 22.2578 4.78125C21.9974 4.78125 21.7682 4.83333 21.5703 4.9375C21.3776 5.04167 21.2109 5.1875 21.0703 5.375C20.9297 5.5625 20.8177 5.78646 20.7344 6.04688C20.651 6.30208 20.5938 6.58333 20.5625 6.89062L20.2031 7.125C20.2031 6.61458 20.2422 6.13542 20.3203 5.6875C20.4036 5.23958 20.5312 4.84375 20.7031 4.5C20.875 4.15104 21.0938 3.88021 21.3594 3.6875C21.6302 3.48958 21.9531 3.39062 22.3281 3.39062C22.4115 3.39062 22.513 3.40365 22.6328 3.42969C22.7578 3.45052 22.8385 3.47396 22.875 3.5ZM27.1328 12.1562C26.6276 12.1562 26.1719 12.0807 25.7656 11.9297C25.3594 11.7786 25.013 11.5495 24.7266 11.2422C24.4401 10.9297 24.2214 10.5365 24.0703 10.0625C23.9193 9.58854 23.8438 9.02865 23.8438 8.38281V7.42969C23.8438 6.6849 23.9297 6.05469 24.1016 5.53906C24.2786 5.02344 24.5156 4.60938 24.8125 4.29688C25.1094 3.97917 25.4453 3.75 25.8203 3.60938C26.1953 3.46354 26.5807 3.39062 26.9766 3.39062C27.5078 3.39062 27.9609 3.47656 28.3359 3.64844C28.7109 3.82031 29.0156 4.07552 29.25 4.41406C29.4844 4.7526 29.6562 5.16927 29.7656 5.66406C29.8802 6.15885 29.9375 6.72917 29.9375 7.375V8.17969H24.6562V7H28.5547V6.80469C28.5339 6.36719 28.474 5.98177 28.375 5.64844C28.2812 5.3151 28.125 5.05469 27.9062 4.86719C27.6875 4.67448 27.3776 4.57812 26.9766 4.57812C26.7214 4.57812 26.4844 4.6224 26.2656 4.71094C26.0521 4.79427 25.8672 4.94271 25.7109 5.15625C25.5599 5.36458 25.4401 5.65365 25.3516 6.02344C25.2682 6.39323 25.2266 6.86198 25.2266 7.42969V8.38281C25.2266 8.83594 25.2682 9.22656 25.3516 9.55469C25.4401 9.8776 25.5677 10.1458 25.7344 10.3594C25.9062 10.5677 26.1146 10.724 26.3594 10.8281C26.6094 10.9271 26.8932 10.9766 27.2109 10.9766C27.6745 10.9766 28.0573 10.888 28.3594 10.7109C28.6615 10.5286 28.9245 10.2969 29.1484 10.0156L29.875 10.8828C29.724 11.0964 29.526 11.3021 29.2812 11.5C29.0417 11.6927 28.7448 11.8516 28.3906 11.9766C28.0417 12.0964 27.6224 12.1562 27.1328 12.1562ZM35.7109 9.83594C35.7109 9.6224 35.6589 9.4349 35.5547 9.27344C35.4505 9.11198 35.2786 8.95573 35.0391 8.80469C34.8047 8.65365 34.487 8.49219 34.0859 8.32031C33.6953 8.15885 33.3438 8 33.0312 7.84375C32.724 7.68229 32.4635 7.50781 32.25 7.32031C32.0365 7.13281 31.8724 6.91667 31.7578 6.67188C31.6484 6.42188 31.5938 6.1276 31.5938 5.78906C31.5938 5.45052 31.6562 5.13802 31.7812 4.85156C31.9115 4.5599 32.0938 4.30469 32.3281 4.08594C32.5625 3.86719 32.8438 3.69792 33.1719 3.57812C33.5 3.45312 33.8672 3.39062 34.2734 3.39062C34.8516 3.39062 35.3438 3.5026 35.75 3.72656C36.1562 3.95052 36.4661 4.25781 36.6797 4.64844C36.8984 5.03385 37.0078 5.46875 37.0078 5.95312H35.6328C35.6328 5.71875 35.5807 5.4974 35.4766 5.28906C35.3724 5.08073 35.2188 4.91146 35.0156 4.78125C34.8125 4.64583 34.5651 4.57812 34.2734 4.57812C33.9661 4.57812 33.7161 4.63281 33.5234 4.74219C33.3307 4.85156 33.1901 4.99479 33.1016 5.17188C33.0182 5.34375 32.9766 5.53385 32.9766 5.74219C32.9766 5.89844 32.9974 6.03385 33.0391 6.14844C33.0859 6.25781 33.1641 6.36198 33.2734 6.46094C33.3828 6.55469 33.5312 6.65365 33.7188 6.75781C33.9115 6.85677 34.1562 6.97135 34.4531 7.10156C35.026 7.32552 35.5078 7.55208 35.8984 7.78125C36.2891 8.01042 36.5859 8.27865 36.7891 8.58594C36.9922 8.89323 37.0938 9.27344 37.0938 9.72656C37.0938 10.0964 37.026 10.4323 36.8906 10.7344C36.7604 11.0312 36.5729 11.2865 36.3281 11.5C36.0833 11.7135 35.7891 11.8776 35.4453 11.9922C35.1068 12.1016 34.7266 12.1562 34.3047 12.1562C33.6693 12.1562 33.1302 12.0312 32.6875 11.7812C32.25 11.526 31.9167 11.1953 31.6875 10.7891C31.4635 10.3776 31.3516 9.9375 31.3516 9.46875H32.7344C32.75 9.86458 32.8385 10.1719 33 10.3906C33.1667 10.6094 33.3672 10.7604 33.6016 10.8438C33.8359 10.9271 34.0703 10.9688 34.3047 10.9688C34.612 10.9688 34.8698 10.9245 35.0781 10.8359C35.2865 10.7422 35.4427 10.6094 35.5469 10.4375C35.6562 10.2656 35.7109 10.0651 35.7109 9.83594ZM41.9297 12.1562C41.4245 12.1562 40.9688 12.0807 40.5625 11.9297C40.1562 11.7786 39.8099 11.5495 39.5234 11.2422C39.237 10.9297 39.0182 10.5365 38.8672 10.0625C38.7161 9.58854 38.6406 9.02865 38.6406 8.38281V7.42969C38.6406 6.6849 38.7266 6.05469 38.8984 5.53906C39.0755 5.02344 39.3125 4.60938 39.6094 4.29688C39.9062 3.97917 40.2422 3.75 40.6172 3.60938C40.9922 3.46354 41.3776 3.39062 41.7734 3.39062C42.3047 3.39062 42.7578 3.47656 43.1328 3.64844C43.5078 3.82031 43.8125 4.07552 44.0469 4.41406C44.2812 4.7526 44.4531 5.16927 44.5625 5.66406C44.6771 6.15885 44.7344 6.72917 44.7344 7.375V8.17969H39.4531V7H43.3516V6.80469C43.3307 6.36719 43.2708 5.98177 43.1719 5.64844C43.0781 5.3151 42.9219 5.05469 42.7031 4.86719C42.4844 4.67448 42.1745 4.57812 41.7734 4.57812C41.5182 4.57812 41.2812 4.6224 41.0625 4.71094C40.849 4.79427 40.6641 4.94271 40.5078 5.15625C40.3568 5.36458 40.237 5.65365 40.1484 6.02344C40.0651 6.39323 40.0234 6.86198 40.0234 7.42969V8.38281C40.0234 8.83594 40.0651 9.22656 40.1484 9.55469C40.237 9.8776 40.3646 10.1458 40.5312 10.3594C40.7031 10.5677 40.9115 10.724 41.1562 10.8281C41.4062 10.9271 41.6901 10.9766 42.0078 10.9766C42.4714 10.9766 42.8542 10.888 43.1562 10.7109C43.4583 10.5286 43.7214 10.2969 43.9453 10.0156L44.6719 10.8828C44.5208 11.0964 44.3229 11.3021 44.0781 11.5C43.8385 11.6927 43.5417 11.8516 43.1875 11.9766C42.8385 12.0964 42.4193 12.1562 41.9297 12.1562ZM54.1797 9.83594C54.1797 9.6224 54.1276 9.4349 54.0234 9.27344C53.9193 9.11198 53.7474 8.95573 53.5078 8.80469C53.2734 8.65365 52.9557 8.49219 52.5547 8.32031C52.1641 8.15885 51.8125 8 51.5 7.84375C51.1927 7.68229 50.9323 7.50781 50.7188 7.32031C50.5052 7.13281 50.3411 6.91667 50.2266 6.67188C50.1172 6.42188 50.0625 6.1276 50.0625 5.78906C50.0625 5.45052 50.125 5.13802 50.25 4.85156C50.3802 4.5599 50.5625 4.30469 50.7969 4.08594C51.0312 3.86719 51.3125 3.69792 51.6406 3.57812C51.9688 3.45312 52.3359 3.39062 52.7422 3.39062C53.3203 3.39062 53.8125 3.5026 54.2188 3.72656C54.625 3.95052 54.9349 4.25781 55.1484 4.64844C55.3672 5.03385 55.4766 5.46875 55.4766 5.95312H54.1016C54.1016 5.71875 54.0495 5.4974 53.9453 5.28906C53.8411 5.08073 53.6875 4.91146 53.4844 4.78125C53.2812 4.64583 53.0339 4.57812 52.7422 4.57812C52.4349 4.57812 52.1849 4.63281 51.9922 4.74219C51.7995 4.85156 51.6589 4.99479 51.5703 5.17188C51.487 5.34375 51.4453 5.53385 51.4453 5.74219C51.4453 5.89844 51.4661 6.03385 51.5078 6.14844C51.5547 6.25781 51.6328 6.36198 51.7422 6.46094C51.8516 6.55469 52 6.65365 52.1875 6.75781C52.3802 6.85677 52.625 6.97135 52.9219 7.10156C53.4948 7.32552 53.9766 7.55208 54.3672 7.78125C54.7578 8.01042 55.0547 8.27865 55.2578 8.58594C55.4609 8.89323 55.5625 9.27344 55.5625 9.72656C55.5625 10.0964 55.4948 10.4323 55.3594 10.7344C55.2292 11.0312 55.0417 11.2865 54.7969 11.5C54.5521 11.7135 54.2578 11.8776 53.9141 11.9922C53.5755 12.1016 53.1953 12.1562 52.7734 12.1562C52.138 12.1562 51.599 12.0312 51.1562 11.7812C50.7188 11.526 50.3854 11.1953 50.1562 10.7891C49.9323 10.3776 49.8203 9.9375 49.8203 9.46875H51.2031C51.2188 9.86458 51.3073 10.1719 51.4688 10.3906C51.6354 10.6094 51.8359 10.7604 52.0703 10.8438C52.3047 10.9271 52.5391 10.9688 52.7734 10.9688C53.0807 10.9688 53.3385 10.9245 53.5469 10.8359C53.7552 10.7422 53.9115 10.6094 54.0156 10.4375C54.125 10.2656 54.1797 10.0651 54.1797 9.83594ZM61.6484 10.0469V3.54688H63.0312V12H61.7188L61.6484 10.0469ZM61.9062 8.26562L62.4531 8.25C62.4531 8.8125 62.4036 9.33333 62.3047 9.8125C62.2109 10.2865 62.0547 10.6979 61.8359 11.0469C61.6224 11.3958 61.3385 11.6693 60.9844 11.8672C60.6302 12.0599 60.1953 12.1562 59.6797 12.1562C59.3307 12.1562 59.013 12.0964 58.7266 11.9766C58.4453 11.8568 58.2005 11.6719 57.9922 11.4219C57.7891 11.1719 57.6302 10.8464 57.5156 10.4453C57.4062 10.0443 57.3516 9.5625 57.3516 9V3.54688H58.7266V9.01562C58.7266 9.39583 58.7604 9.71094 58.8281 9.96094C58.8958 10.2057 58.987 10.401 59.1016 10.5469C59.2161 10.6875 59.3438 10.7865 59.4844 10.8438C59.625 10.901 59.7682 10.9297 59.9141 10.9297C60.4036 10.9297 60.7943 10.8125 61.0859 10.5781C61.3776 10.3385 61.5859 10.0182 61.7109 9.61719C61.8411 9.21094 61.9062 8.76042 61.9062 8.26562ZM69.2109 9.83594C69.2109 9.6224 69.1589 9.4349 69.0547 9.27344C68.9505 9.11198 68.7786 8.95573 68.5391 8.80469C68.3047 8.65365 67.987 8.49219 67.5859 8.32031C67.1953 8.15885 66.8438 8 66.5312 7.84375C66.224 7.68229 65.9635 7.50781 65.75 7.32031C65.5365 7.13281 65.3724 6.91667 65.2578 6.67188C65.1484 6.42188 65.0938 6.1276 65.0938 5.78906C65.0938 5.45052 65.1562 5.13802 65.2812 4.85156C65.4115 4.5599 65.5938 4.30469 65.8281 4.08594C66.0625 3.86719 66.3438 3.69792 66.6719 3.57812C67 3.45312 67.3672 3.39062 67.7734 3.39062C68.3516 3.39062 68.8438 3.5026 69.25 3.72656C69.6562 3.95052 69.9661 4.25781 70.1797 4.64844C70.3984 5.03385 70.5078 5.46875 70.5078 5.95312H69.1328C69.1328 5.71875 69.0807 5.4974 68.9766 5.28906C68.8724 5.08073 68.7188 4.91146 68.5156 4.78125C68.3125 4.64583 68.0651 4.57812 67.7734 4.57812C67.4661 4.57812 67.2161 4.63281 67.0234 4.74219C66.8307 4.85156 66.6901 4.99479 66.6016 5.17188C66.5182 5.34375 66.4766 5.53385 66.4766 5.74219C66.4766 5.89844 66.4974 6.03385 66.5391 6.14844C66.5859 6.25781 66.6641 6.36198 66.7734 6.46094C66.8828 6.55469 67.0312 6.65365 67.2188 6.75781C67.4115 6.85677 67.6562 6.97135 67.9531 7.10156C68.526 7.32552 69.0078 7.55208 69.3984 7.78125C69.7891 8.01042 70.0859 8.27865 70.2891 8.58594C70.4922 8.89323 70.5938 9.27344 70.5938 9.72656C70.5938 10.0964 70.526 10.4323 70.3906 10.7344C70.2604 11.0312 70.0729 11.2865 69.8281 11.5C69.5833 11.7135 69.2891 11.8776 68.9453 11.9922C68.6068 12.1016 68.2266 12.1562 67.8047 12.1562C67.1693 12.1562 66.6302 12.0312 66.1875 11.7812C65.75 11.526 65.4167 11.1953 65.1875 10.7891C64.9635 10.3776 64.8516 9.9375 64.8516 9.46875H66.2344C66.25 9.86458 66.3385 10.1719 66.5 10.3906C66.6667 10.6094 66.8672 10.7604 67.1016 10.8438C67.3359 10.9271 67.5703 10.9688 67.8047 10.9688C68.112 10.9688 68.3698 10.9245 68.5781 10.8359C68.7865 10.7422 68.9427 10.6094 69.0469 10.4375C69.1562 10.2656 69.2109 10.0651 69.2109 9.83594ZM80.5078 10.3594V0H81.8828V12H80.625L80.5078 10.3594ZM75.7812 8.17969V7.39062C75.7812 6.69271 75.849 6.09375 75.9844 5.59375C76.1198 5.08854 76.3125 4.67448 76.5625 4.35156C76.8125 4.02344 77.112 3.78125 77.4609 3.625C77.8099 3.46875 78.1953 3.39062 78.6172 3.39062C79.0547 3.39062 79.4297 3.47917 79.7422 3.65625C80.0599 3.83333 80.3255 4.09115 80.5391 4.42969C80.7526 4.76302 80.9193 5.16927 81.0391 5.64844C81.1641 6.1224 81.2474 6.65885 81.2891 7.25781V8.3125C81.2422 8.90625 81.1562 9.4401 81.0312 9.91406C80.9115 10.388 80.7448 10.7917 80.5312 11.125C80.3177 11.4583 80.0521 11.7135 79.7344 11.8906C79.4167 12.0677 79.0391 12.1562 78.6016 12.1562C78.1849 12.1562 77.8047 12.0755 77.4609 11.9141C77.1172 11.7474 76.8177 11.5 76.5625 11.1719C76.3125 10.8385 76.1198 10.4245 75.9844 9.92969C75.849 9.42969 75.7812 8.84635 75.7812 8.17969ZM77.1641 7.39062V8.17969C77.1641 8.64844 77.1979 9.05729 77.2656 9.40625C77.3333 9.75 77.4401 10.0365 77.5859 10.2656C77.7318 10.4896 77.9167 10.6562 78.1406 10.7656C78.3698 10.875 78.6432 10.9297 78.9609 10.9297C79.3464 10.9297 79.6615 10.8359 79.9062 10.6484C80.151 10.4609 80.3464 10.2135 80.4922 9.90625C80.6432 9.59375 80.763 9.25781 80.8516 8.89844V6.67969C80.7995 6.41406 80.724 6.15885 80.625 5.91406C80.526 5.66406 80.401 5.44271 80.25 5.25C80.1042 5.05208 79.9245 4.89583 79.7109 4.78125C79.5026 4.66667 79.2578 4.60938 78.9766 4.60938C78.6589 4.60938 78.3828 4.66667 78.1484 4.78125C77.9193 4.89583 77.7318 5.06771 77.5859 5.29688C77.4453 5.52604 77.3385 5.8151 77.2656 6.16406C77.1979 6.51302 77.1641 6.92188 77.1641 7.39062ZM88.1562 10.5547V5.96875C88.1562 5.63542 88.1042 5.36719 88 5.16406C87.901 4.96094 87.75 4.8125 87.5469 4.71875C87.349 4.625 87.099 4.57812 86.7969 4.57812C86.5052 4.57812 86.2526 4.63802 86.0391 4.75781C85.8307 4.8776 85.6693 5.03646 85.5547 5.23438C85.4453 5.43229 85.3906 5.65104 85.3906 5.89062H84.0078C84.0078 5.58854 84.0729 5.28906 84.2031 4.99219C84.3385 4.69531 84.5312 4.42708 84.7812 4.1875C85.0312 3.94271 85.3307 3.75 85.6797 3.60938C86.0339 3.46354 86.4297 3.39062 86.8672 3.39062C87.388 3.39062 87.849 3.47656 88.25 3.64844C88.651 3.8151 88.9661 4.08854 89.1953 4.46875C89.4245 4.84896 89.5391 5.35417 89.5391 5.98438V10.1562C89.5391 10.4375 89.5599 10.737 89.6016 11.0547C89.6484 11.3724 89.7135 11.6458 89.7969 11.875V12H88.3672C88.2995 11.8333 88.2474 11.612 88.2109 11.3359C88.1745 11.0547 88.1562 10.7943 88.1562 10.5547ZM88.375 6.875L88.3906 7.89062H87.4297C87.1016 7.89062 86.8021 7.92708 86.5312 8C86.2656 8.07292 86.0365 8.17969 85.8438 8.32031C85.651 8.45573 85.5026 8.625 85.3984 8.82812C85.2995 9.03125 85.25 9.26302 85.25 9.52344C85.25 9.86198 85.2969 10.1328 85.3906 10.3359C85.4844 10.5339 85.625 10.6771 85.8125 10.7656C86 10.8542 86.237 10.8984 86.5234 10.8984C86.8724 10.8984 87.1797 10.8177 87.4453 10.6562C87.7109 10.4948 87.9167 10.2995 88.0625 10.0703C88.2135 9.84115 88.2839 9.6276 88.2734 9.42969L88.5781 10.0781C88.5573 10.2812 88.4896 10.5026 88.375 10.7422C88.2656 10.9766 88.112 11.2031 87.9141 11.4219C87.7161 11.6354 87.4818 11.8125 87.2109 11.9531C86.9453 12.0885 86.6458 12.1562 86.3125 12.1562C85.8229 12.1562 85.3932 12.0625 85.0234 11.875C84.6589 11.6875 84.375 11.4115 84.1719 11.0469C83.9688 10.6823 83.8672 10.2318 83.8672 9.69531C83.8672 9.28906 83.9375 8.91406 84.0781 8.57031C84.2188 8.22656 84.4271 7.92969 84.7031 7.67969C84.9792 7.42448 85.3255 7.22656 85.7422 7.08594C86.1641 6.94531 86.651 6.875 87.2031 6.875H88.375ZM94.7734 3.54688V4.65625H90.8281V3.54688H94.7734ZM92.1172 1.49219H93.5V9.90625C93.5 10.1927 93.5339 10.4089 93.6016 10.5547C93.6745 10.7005 93.7656 10.7969 93.875 10.8438C93.9844 10.8906 94.1016 10.9141 94.2266 10.9141C94.3203 10.9141 94.4245 10.9036 94.5391 10.8828C94.6536 10.8568 94.7318 10.8359 94.7734 10.8203L94.7656 12C94.6719 12.0365 94.5469 12.0703 94.3906 12.1016C94.2344 12.138 94.0365 12.1562 93.7969 12.1562C93.5 12.1562 93.224 12.0859 92.9688 11.9453C92.7135 11.8047 92.5078 11.5703 92.3516 11.2422C92.1953 10.9089 92.1172 10.4609 92.1172 9.89844V1.49219ZM95.9766 8.17969V7.375C95.9766 6.71875 96.0599 6.14323 96.2266 5.64844C96.3932 5.14844 96.625 4.73177 96.9219 4.39844C97.2188 4.0651 97.5651 3.8151 97.9609 3.64844C98.3568 3.47656 98.7812 3.39062 99.2344 3.39062C99.6979 3.39062 100.128 3.47656 100.523 3.64844C100.919 3.8151 101.266 4.0651 101.562 4.39844C101.865 4.73177 102.099 5.14844 102.266 5.64844C102.432 6.14323 102.516 6.71875 102.516 7.375V8.17969C102.516 8.83594 102.432 9.41406 102.266 9.91406C102.099 10.4089 101.867 10.8229 101.57 11.1562C101.273 11.4896 100.927 11.7396 100.531 11.9062C100.135 12.0729 99.7083 12.1562 99.25 12.1562C98.7917 12.1562 98.3646 12.0729 97.9688 11.9062C97.5729 11.7396 97.224 11.4896 96.9219 11.1562C96.625 10.8229 96.3932 10.4089 96.2266 9.91406C96.0599 9.41406 95.9766 8.83594 95.9766 8.17969ZM97.3594 7.375V8.17969C97.3594 8.64323 97.4062 9.04948 97.5 9.39844C97.5938 9.7474 97.7266 10.0391 97.8984 10.2734C98.0703 10.5078 98.2708 10.6849 98.5 10.8047C98.7292 10.9193 98.9792 10.9766 99.25 10.9766C99.5625 10.9766 99.8359 10.9193 100.07 10.8047C100.31 10.6849 100.508 10.5078 100.664 10.2734C100.82 10.0391 100.938 9.7474 101.016 9.39844C101.094 9.04948 101.133 8.64323 101.133 8.17969V7.375C101.133 6.91146 101.086 6.50781 100.992 6.16406C100.898 5.8151 100.766 5.52344 100.594 5.28906C100.422 5.04948 100.219 4.8724 99.9844 4.75781C99.7552 4.63802 99.5052 4.57812 99.2344 4.57812C98.9688 4.57812 98.7214 4.63802 98.4922 4.75781C98.263 4.8724 98.0625 5.04948 97.8906 5.28906C97.724 5.52344 97.5938 5.8151 97.5 6.16406C97.4062 6.50781 97.3594 6.91146 97.3594 7.375ZM108.398 9.83594C108.398 9.6224 108.346 9.4349 108.242 9.27344C108.138 9.11198 107.966 8.95573 107.727 8.80469C107.492 8.65365 107.174 8.49219 106.773 8.32031C106.383 8.15885 106.031 8 105.719 7.84375C105.411 7.68229 105.151 7.50781 104.938 7.32031C104.724 7.13281 104.56 6.91667 104.445 6.67188C104.336 6.42188 104.281 6.1276 104.281 5.78906C104.281 5.45052 104.344 5.13802 104.469 4.85156C104.599 4.5599 104.781 4.30469 105.016 4.08594C105.25 3.86719 105.531 3.69792 105.859 3.57812C106.188 3.45312 106.555 3.39062 106.961 3.39062C107.539 3.39062 108.031 3.5026 108.438 3.72656C108.844 3.95052 109.154 4.25781 109.367 4.64844C109.586 5.03385 109.695 5.46875 109.695 5.95312H108.32C108.32 5.71875 108.268 5.4974 108.164 5.28906C108.06 5.08073 107.906 4.91146 107.703 4.78125C107.5 4.64583 107.253 4.57812 106.961 4.57812C106.654 4.57812 106.404 4.63281 106.211 4.74219C106.018 4.85156 105.878 4.99479 105.789 5.17188C105.706 5.34375 105.664 5.53385 105.664 5.74219C105.664 5.89844 105.685 6.03385 105.727 6.14844C105.773 6.25781 105.852 6.36198 105.961 6.46094C106.07 6.55469 106.219 6.65365 106.406 6.75781C106.599 6.85677 106.844 6.97135 107.141 7.10156C107.714 7.32552 108.195 7.55208 108.586 7.78125C108.977 8.01042 109.273 8.27865 109.477 8.58594C109.68 8.89323 109.781 9.27344 109.781 9.72656C109.781 10.0964 109.714 10.4323 109.578 10.7344C109.448 11.0312 109.26 11.2865 109.016 11.5C108.771 11.7135 108.477 11.8776 108.133 11.9922C107.794 12.1016 107.414 12.1562 106.992 12.1562C106.357 12.1562 105.818 12.0312 105.375 11.7812C104.938 11.526 104.604 11.1953 104.375 10.7891C104.151 10.3776 104.039 9.9375 104.039 9.46875H105.422C105.438 9.86458 105.526 10.1719 105.688 10.3906C105.854 10.6094 106.055 10.7604 106.289 10.8438C106.523 10.9271 106.758 10.9688 106.992 10.9688C107.299 10.9688 107.557 10.9245 107.766 10.8359C107.974 10.7422 108.13 10.6094 108.234 10.4375C108.344 10.2656 108.398 10.0651 108.398 9.83594Z" fill="#1B1B1B"/>
</svg>
