<svg width="104" height="15" viewBox="0 0 104 15" fill="none" xmlns="http://www.w3.org/2000/svg">
<path d="M3.625 6.91406H1.14062V5.6875H3.625C4.09375 5.6875 4.47135 5.59375 4.75781 5.40625C5.04948 5.21875 5.26042 4.95833 5.39062 4.625C5.52604 4.29167 5.59375 3.91146 5.59375 3.48438C5.59375 3.09375 5.52604 2.72656 5.39062 2.38281C5.26042 2.03906 5.04948 1.76302 4.75781 1.55469C4.47135 1.34115 4.09375 1.23438 3.625 1.23438H1.4375V11.375H0V0H3.625C4.35938 0 4.97917 0.148438 5.48438 0.445312C5.98958 0.742188 6.3724 1.15365 6.63281 1.67969C6.89844 2.20052 7.03125 2.79688 7.03125 3.46875C7.03125 4.19792 6.89844 4.82031 6.63281 5.33594C6.3724 5.85156 5.98958 6.24479 5.48438 6.51562C4.97917 6.78125 4.35938 6.91406 3.625 6.91406ZM12.75 9.92969V5.34375C12.75 5.01042 12.6979 4.74219 12.5938 4.53906C12.4948 4.33594 12.3438 4.1875 12.1406 4.09375C11.9427 4 11.6927 3.95312 11.3906 3.95312C11.099 3.95312 10.8464 4.01302 10.6328 4.13281C10.4245 4.2526 10.263 4.41146 10.1484 4.60938C10.0391 4.80729 9.98438 5.02604 9.98438 5.26562H8.60156C8.60156 4.96354 8.66667 4.66406 8.79688 4.36719C8.93229 4.07031 9.125 3.80208 9.375 3.5625C9.625 3.31771 9.92448 3.125 10.2734 2.98438C10.6276 2.83854 11.0234 2.76562 11.4609 2.76562C11.9818 2.76562 12.4427 2.85156 12.8438 3.02344C13.2448 3.1901 13.5599 3.46354 13.7891 3.84375C14.0182 4.22396 14.1328 4.72917 14.1328 5.35938V9.53125C14.1328 9.8125 14.1536 10.112 14.1953 10.4297C14.2422 10.7474 14.3073 11.0208 14.3906 11.25V11.375H12.9609C12.8932 11.2083 12.8411 10.987 12.8047 10.7109C12.7682 10.4297 12.75 10.1693 12.75 9.92969ZM12.9688 6.25L12.9844 7.26562H12.0234C11.6953 7.26562 11.3958 7.30208 11.125 7.375C10.8594 7.44792 10.6302 7.55469 10.4375 7.69531C10.2448 7.83073 10.0964 8 9.99219 8.20312C9.89323 8.40625 9.84375 8.63802 9.84375 8.89844C9.84375 9.23698 9.89062 9.50781 9.98438 9.71094C10.0781 9.90885 10.2188 10.0521 10.4062 10.1406C10.5938 10.2292 10.8307 10.2734 11.1172 10.2734C11.4661 10.2734 11.7734 10.1927 12.0391 10.0312C12.3047 9.86979 12.5104 9.67448 12.6562 9.44531C12.8073 9.21615 12.8776 9.0026 12.8672 8.80469L13.1719 9.45312C13.151 9.65625 13.0833 9.8776 12.9688 10.1172C12.8594 10.3516 12.7057 10.5781 12.5078 10.7969C12.3099 11.0104 12.0755 11.1875 11.8047 11.3281C11.5391 11.4635 11.2396 11.5312 10.9062 11.5312C10.4167 11.5312 9.98698 11.4375 9.61719 11.25C9.2526 11.0625 8.96875 10.7865 8.76562 10.4219C8.5625 10.0573 8.46094 9.60677 8.46094 9.07031C8.46094 8.66406 8.53125 8.28906 8.67188 7.94531C8.8125 7.60156 9.02083 7.30469 9.29688 7.05469C9.57292 6.79948 9.91927 6.60156 10.3359 6.46094C10.7578 6.32031 11.2448 6.25 11.7969 6.25H12.9688ZM20.8594 2.92188H22.1016V11.4453C22.1016 12.1901 21.9714 12.8047 21.7109 13.2891C21.4557 13.7734 21.099 14.1302 20.6406 14.3594C20.1823 14.5938 19.6536 14.7109 19.0547 14.7109C18.8411 14.7109 18.5729 14.6719 18.25 14.5938C17.9271 14.5156 17.6042 14.3958 17.2812 14.2344C16.9583 14.0781 16.6927 13.8802 16.4844 13.6406L17.0547 12.6797C17.3516 12.9818 17.6667 13.1979 18 13.3281C18.3333 13.4583 18.651 13.5234 18.9531 13.5234C19.3125 13.5234 19.625 13.4583 19.8906 13.3281C20.1562 13.1979 20.362 12.9844 20.5078 12.6875C20.6536 12.3958 20.7266 12.0052 20.7266 11.5156V4.78125L20.8594 2.92188ZM16 7.55469V6.76562C16 6.06771 16.0651 5.46875 16.1953 4.96875C16.3255 4.46354 16.513 4.04948 16.7578 3.72656C17.0078 3.39844 17.3073 3.15625 17.6562 3C18.0052 2.84375 18.3958 2.76562 18.8281 2.76562C19.2656 2.76562 19.6432 2.85417 19.9609 3.03125C20.2786 3.20833 20.5417 3.46615 20.75 3.80469C20.9635 4.13802 21.1302 4.54427 21.25 5.02344C21.375 5.4974 21.4609 6.03385 21.5078 6.63281V7.6875C21.4609 8.28125 21.375 8.8151 21.25 9.28906C21.1302 9.76302 20.9609 10.1667 20.7422 10.5C20.5286 10.8333 20.263 11.0885 19.9453 11.2656C19.6276 11.4427 19.25 11.5312 18.8125 11.5312C18.3854 11.5312 18 11.4505 17.6562 11.2891C17.3125 11.1224 17.0156 10.875 16.7656 10.5469C16.5208 10.2135 16.3307 9.79948 16.1953 9.30469C16.0651 8.80469 16 8.22135 16 7.55469ZM17.3828 6.76562V7.55469C17.3828 8.02344 17.4167 8.43229 17.4844 8.78125C17.5521 9.125 17.6562 9.41146 17.7969 9.64062C17.9427 9.86458 18.1276 10.0312 18.3516 10.1406C18.5807 10.25 18.8542 10.3047 19.1719 10.3047C19.5573 10.3047 19.8724 10.2109 20.1172 10.0234C20.362 9.83594 20.5573 9.58854 20.7031 9.28125C20.8542 8.96875 20.974 8.63281 21.0625 8.27344V6.05469C21.0104 5.78906 20.9349 5.53385 20.8359 5.28906C20.7422 5.03906 20.6198 4.81771 20.4688 4.625C20.3177 4.42708 20.1354 4.27083 19.9219 4.15625C19.7135 4.04167 19.4688 3.98438 19.1875 3.98438C18.8698 3.98438 18.5964 4.04167 18.3672 4.15625C18.138 4.27083 17.9505 4.44271 17.8047 4.67188C17.6589 4.90104 17.5521 5.1901 17.4844 5.53906C17.4167 5.88802 17.3828 6.29688 17.3828 6.76562ZM28.4453 9.42188V2.92188H29.8281V11.375H28.5156L28.4453 9.42188ZM28.7031 7.64062L29.25 7.625C29.25 8.1875 29.2005 8.70833 29.1016 9.1875C29.0078 9.66146 28.8516 10.0729 28.6328 10.4219C28.4193 10.7708 28.1354 11.0443 27.7812 11.2422C27.4271 11.4349 26.9922 11.5312 26.4766 11.5312C26.1276 11.5312 25.8099 11.4714 25.5234 11.3516C25.2422 11.2318 24.9974 11.0469 24.7891 10.7969C24.5859 10.5469 24.4271 10.2214 24.3125 9.82031C24.2031 9.41927 24.1484 8.9375 24.1484 8.375V2.92188H25.5234V8.39062C25.5234 8.77083 25.5573 9.08594 25.625 9.33594C25.6927 9.58073 25.7839 9.77604 25.8984 9.92188C26.013 10.0625 26.1406 10.1615 26.2812 10.2188C26.4219 10.276 26.5651 10.3047 26.7109 10.3047C27.2005 10.3047 27.5911 10.1875 27.8828 9.95312C28.1745 9.71354 28.3828 9.39323 28.5078 8.99219C28.638 8.58594 28.7031 8.13542 28.7031 7.64062ZM34.9297 11.5312C34.4245 11.5312 33.9688 11.4557 33.5625 11.3047C33.1562 11.1536 32.8099 10.9245 32.5234 10.6172C32.237 10.3047 32.0182 9.91146 31.8672 9.4375C31.7161 8.96354 31.6406 8.40365 31.6406 7.75781V6.80469C31.6406 6.0599 31.7266 5.42969 31.8984 4.91406C32.0755 4.39844 32.3125 3.98438 32.6094 3.67188C32.9062 3.35417 33.2422 3.125 33.6172 2.98438C33.9922 2.83854 34.3776 2.76562 34.7734 2.76562C35.3047 2.76562 35.7578 2.85156 36.1328 3.02344C36.5078 3.19531 36.8125 3.45052 37.0469 3.78906C37.2812 4.1276 37.4531 4.54427 37.5625 5.03906C37.6771 5.53385 37.7344 6.10417 37.7344 6.75V7.55469H32.4531V6.375H36.3516V6.17969C36.3307 5.74219 36.2708 5.35677 36.1719 5.02344C36.0781 4.6901 35.9219 4.42969 35.7031 4.24219C35.4844 4.04948 35.1745 3.95312 34.7734 3.95312C34.5182 3.95312 34.2812 3.9974 34.0625 4.08594C33.849 4.16927 33.6641 4.31771 33.5078 4.53125C33.3568 4.73958 33.237 5.02865 33.1484 5.39844C33.0651 5.76823 33.0234 6.23698 33.0234 6.80469V7.75781C33.0234 8.21094 33.0651 8.60156 33.1484 8.92969C33.237 9.2526 33.3646 9.52083 33.5312 9.73438C33.7031 9.94271 33.9115 10.099 34.1562 10.2031C34.4062 10.3021 34.6901 10.3516 35.0078 10.3516C35.4714 10.3516 35.8542 10.263 36.1562 10.0859C36.4583 9.90365 36.7214 9.67188 36.9453 9.39062L37.6719 10.2578C37.5208 10.4714 37.3229 10.6771 37.0781 10.875C36.8385 11.0677 36.5417 11.2266 36.1875 11.3516C35.8385 11.4714 35.4193 11.5312 34.9297 11.5312ZM47.1797 9.21094C47.1797 8.9974 47.1276 8.8099 47.0234 8.64844C46.9193 8.48698 46.7474 8.33073 46.5078 8.17969C46.2734 8.02865 45.9557 7.86719 45.5547 7.69531C45.1641 7.53385 44.8125 7.375 44.5 7.21875C44.1927 7.05729 43.9323 6.88281 43.7188 6.69531C43.5052 6.50781 43.3411 6.29167 43.2266 6.04688C43.1172 5.79688 43.0625 5.5026 43.0625 5.16406C43.0625 4.82552 43.125 4.51302 43.25 4.22656C43.3802 3.9349 43.5625 3.67969 43.7969 3.46094C44.0312 3.24219 44.3125 3.07292 44.6406 2.95312C44.9688 2.82812 45.3359 2.76562 45.7422 2.76562C46.3203 2.76562 46.8125 2.8776 47.2188 3.10156C47.625 3.32552 47.9349 3.63281 48.1484 4.02344C48.3672 4.40885 48.4766 4.84375 48.4766 5.32812H47.1016C47.1016 5.09375 47.0495 4.8724 46.9453 4.66406C46.8411 4.45573 46.6875 4.28646 46.4844 4.15625C46.2812 4.02083 46.0339 3.95312 45.7422 3.95312C45.4349 3.95312 45.1849 4.00781 44.9922 4.11719C44.7995 4.22656 44.6589 4.36979 44.5703 4.54688C44.487 4.71875 44.4453 4.90885 44.4453 5.11719C44.4453 5.27344 44.4661 5.40885 44.5078 5.52344C44.5547 5.63281 44.6328 5.73698 44.7422 5.83594C44.8516 5.92969 45 6.02865 45.1875 6.13281C45.3802 6.23177 45.625 6.34635 45.9219 6.47656C46.4948 6.70052 46.9766 6.92708 47.3672 7.15625C47.7578 7.38542 48.0547 7.65365 48.2578 7.96094C48.4609 8.26823 48.5625 8.64844 48.5625 9.10156C48.5625 9.47135 48.4948 9.80729 48.3594 10.1094C48.2292 10.4062 48.0417 10.6615 47.7969 10.875C47.5521 11.0885 47.2578 11.2526 46.9141 11.3672C46.5755 11.4766 46.1953 11.5312 45.7734 11.5312C45.138 11.5312 44.599 11.4062 44.1562 11.1562C43.7188 10.901 43.3854 10.5703 43.1562 10.1641C42.9323 9.7526 42.8203 9.3125 42.8203 8.84375H44.2031C44.2188 9.23958 44.3073 9.54688 44.4688 9.76562C44.6354 9.98438 44.8359 10.1354 45.0703 10.2188C45.3047 10.3021 45.5391 10.3438 45.7734 10.3438C46.0807 10.3438 46.3385 10.2995 46.5469 10.2109C46.7552 10.1172 46.9115 9.98438 47.0156 9.8125C47.125 9.64062 47.1797 9.4401 47.1797 9.21094ZM54.6484 9.42188V2.92188H56.0312V11.375H54.7188L54.6484 9.42188ZM54.9062 7.64062L55.4531 7.625C55.4531 8.1875 55.4036 8.70833 55.3047 9.1875C55.2109 9.66146 55.0547 10.0729 54.8359 10.4219C54.6224 10.7708 54.3385 11.0443 53.9844 11.2422C53.6302 11.4349 53.1953 11.5312 52.6797 11.5312C52.3307 11.5312 52.013 11.4714 51.7266 11.3516C51.4453 11.2318 51.2005 11.0469 50.9922 10.7969C50.7891 10.5469 50.6302 10.2214 50.5156 9.82031C50.4062 9.41927 50.3516 8.9375 50.3516 8.375V2.92188H51.7266V8.39062C51.7266 8.77083 51.7604 9.08594 51.8281 9.33594C51.8958 9.58073 51.987 9.77604 52.1016 9.92188C52.2161 10.0625 52.3438 10.1615 52.4844 10.2188C52.625 10.276 52.7682 10.3047 52.9141 10.3047C53.4036 10.3047 53.7943 10.1875 54.0859 9.95312C54.3776 9.71354 54.5859 9.39323 54.7109 8.99219C54.8411 8.58594 54.9062 8.13542 54.9062 7.64062ZM65.8828 9.21094C65.8828 8.9974 65.8307 8.8099 65.7266 8.64844C65.6224 8.48698 65.4505 8.33073 65.2109 8.17969C64.9766 8.02865 64.6589 7.86719 64.2578 7.69531C63.8672 7.53385 63.5156 7.375 63.2031 7.21875C62.8958 7.05729 62.6354 6.88281 62.4219 6.69531C62.2083 6.50781 62.0443 6.29167 61.9297 6.04688C61.8203 5.79688 61.7656 5.5026 61.7656 5.16406C61.7656 4.82552 61.8281 4.51302 61.9531 4.22656C62.0833 3.9349 62.2656 3.67969 62.5 3.46094C62.7344 3.24219 63.0156 3.07292 63.3438 2.95312C63.6719 2.82812 64.0391 2.76562 64.4453 2.76562C65.0234 2.76562 65.5156 2.8776 65.9219 3.10156C66.3281 3.32552 66.638 3.63281 66.8516 4.02344C67.0703 4.40885 67.1797 4.84375 67.1797 5.32812H65.8047C65.8047 5.09375 65.7526 4.8724 65.6484 4.66406C65.5443 4.45573 65.3906 4.28646 65.1875 4.15625C64.9844 4.02083 64.737 3.95312 64.4453 3.95312C64.138 3.95312 63.888 4.00781 63.6953 4.11719C63.5026 4.22656 63.362 4.36979 63.2734 4.54688C63.1901 4.71875 63.1484 4.90885 63.1484 5.11719C63.1484 5.27344 63.1693 5.40885 63.2109 5.52344C63.2578 5.63281 63.3359 5.73698 63.4453 5.83594C63.5547 5.92969 63.7031 6.02865 63.8906 6.13281C64.0833 6.23177 64.3281 6.34635 64.625 6.47656C65.1979 6.70052 65.6797 6.92708 66.0703 7.15625C66.4609 7.38542 66.7578 7.65365 66.9609 7.96094C67.1641 8.26823 67.2656 8.64844 67.2656 9.10156C67.2656 9.47135 67.1979 9.80729 67.0625 10.1094C66.9323 10.4062 66.7448 10.6615 66.5 10.875C66.2552 11.0885 65.9609 11.2526 65.6172 11.3672C65.2786 11.4766 64.8984 11.5312 64.4766 11.5312C63.8411 11.5312 63.3021 11.4062 62.8594 11.1562C62.4219 10.901 62.0885 10.5703 61.8594 10.1641C61.6354 9.7526 61.5234 9.3125 61.5234 8.84375H62.9062C62.9219 9.23958 63.0104 9.54688 63.1719 9.76562C63.3385 9.98438 63.5391 10.1354 63.7734 10.2188C64.0078 10.3021 64.2422 10.3438 64.4766 10.3438C64.7839 10.3438 65.0417 10.2995 65.25 10.2109C65.4583 10.1172 65.6146 9.98438 65.7188 9.8125C65.8281 9.64062 65.8828 9.4401 65.8828 9.21094ZM72.1016 11.5312C71.5964 11.5312 71.1406 11.4557 70.7344 11.3047C70.3281 11.1536 69.9818 10.9245 69.6953 10.6172C69.4089 10.3047 69.1901 9.91146 69.0391 9.4375C68.888 8.96354 68.8125 8.40365 68.8125 7.75781V6.80469C68.8125 6.0599 68.8984 5.42969 69.0703 4.91406C69.2474 4.39844 69.4844 3.98438 69.7812 3.67188C70.0781 3.35417 70.4141 3.125 70.7891 2.98438C71.1641 2.83854 71.5495 2.76562 71.9453 2.76562C72.4766 2.76562 72.9297 2.85156 73.3047 3.02344C73.6797 3.19531 73.9844 3.45052 74.2188 3.78906C74.4531 4.1276 74.625 4.54427 74.7344 5.03906C74.849 5.53385 74.9062 6.10417 74.9062 6.75V7.55469H69.625V6.375H73.5234V6.17969C73.5026 5.74219 73.4427 5.35677 73.3438 5.02344C73.25 4.6901 73.0938 4.42969 72.875 4.24219C72.6562 4.04948 72.3464 3.95312 71.9453 3.95312C71.6901 3.95312 71.4531 3.9974 71.2344 4.08594C71.0208 4.16927 70.8359 4.31771 70.6797 4.53125C70.5286 4.73958 70.4089 5.02865 70.3203 5.39844C70.237 5.76823 70.1953 6.23698 70.1953 6.80469V7.75781C70.1953 8.21094 70.237 8.60156 70.3203 8.92969C70.4089 9.2526 70.5365 9.52083 70.7031 9.73438C70.875 9.94271 71.0833 10.099 71.3281 10.2031C71.5781 10.3021 71.862 10.3516 72.1797 10.3516C72.6432 10.3516 73.026 10.263 73.3281 10.0859C73.6302 9.90365 73.8932 9.67188 74.1172 9.39062L74.8438 10.2578C74.6927 10.4714 74.4948 10.6771 74.25 10.875C74.0104 11.0677 73.7135 11.2266 73.3594 11.3516C73.0104 11.4714 72.5911 11.5312 72.1016 11.5312ZM81.1562 2.92188H82.3984V11.4453C82.3984 12.1901 82.2682 12.8047 82.0078 13.2891C81.7526 13.7734 81.3958 14.1302 80.9375 14.3594C80.4792 14.5938 79.9505 14.7109 79.3516 14.7109C79.138 14.7109 78.8698 14.6719 78.5469 14.5938C78.224 14.5156 77.901 14.3958 77.5781 14.2344C77.2552 14.0781 76.9896 13.8802 76.7812 13.6406L77.3516 12.6797C77.6484 12.9818 77.9635 13.1979 78.2969 13.3281C78.6302 13.4583 78.9479 13.5234 79.25 13.5234C79.6094 13.5234 79.9219 13.4583 80.1875 13.3281C80.4531 13.1979 80.6589 12.9844 80.8047 12.6875C80.9505 12.3958 81.0234 12.0052 81.0234 11.5156V4.78125L81.1562 2.92188ZM76.2969 7.55469V6.76562C76.2969 6.06771 76.362 5.46875 76.4922 4.96875C76.6224 4.46354 76.8099 4.04948 77.0547 3.72656C77.3047 3.39844 77.6042 3.15625 77.9531 3C78.3021 2.84375 78.6927 2.76562 79.125 2.76562C79.5625 2.76562 79.9401 2.85417 80.2578 3.03125C80.5755 3.20833 80.8385 3.46615 81.0469 3.80469C81.2604 4.13802 81.4271 4.54427 81.5469 5.02344C81.6719 5.4974 81.7578 6.03385 81.8047 6.63281V7.6875C81.7578 8.28125 81.6719 8.8151 81.5469 9.28906C81.4271 9.76302 81.2578 10.1667 81.0391 10.5C80.8255 10.8333 80.5599 11.0885 80.2422 11.2656C79.9245 11.4427 79.5469 11.5312 79.1094 11.5312C78.6823 11.5312 78.2969 11.4505 77.9531 11.2891C77.6094 11.1224 77.3125 10.875 77.0625 10.5469C76.8177 10.2135 76.6276 9.79948 76.4922 9.30469C76.362 8.80469 76.2969 8.22135 76.2969 7.55469ZM77.6797 6.76562V7.55469C77.6797 8.02344 77.7135 8.43229 77.7812 8.78125C77.849 9.125 77.9531 9.41146 78.0938 9.64062C78.2396 9.86458 78.4245 10.0312 78.6484 10.1406C78.8776 10.25 79.151 10.3047 79.4688 10.3047C79.8542 10.3047 80.1693 10.2109 80.4141 10.0234C80.6589 9.83594 80.8542 9.58854 81 9.28125C81.151 8.96875 81.2708 8.63281 81.3594 8.27344V6.05469C81.3073 5.78906 81.2318 5.53385 81.1328 5.28906C81.0391 5.03906 80.9167 4.81771 80.7656 4.625C80.6146 4.42708 80.4323 4.27083 80.2188 4.15625C80.0104 4.04167 79.7656 3.98438 79.4844 3.98438C79.1667 3.98438 78.8932 4.04167 78.6641 4.15625C78.4349 4.27083 78.2474 4.44271 78.1016 4.67188C77.9557 4.90104 77.849 5.1901 77.7812 5.53906C77.7135 5.88802 77.6797 6.29688 77.6797 6.76562ZM88.7422 9.42188V2.92188H90.125V11.375H88.8125L88.7422 9.42188ZM89 7.64062L89.5469 7.625C89.5469 8.1875 89.4974 8.70833 89.3984 9.1875C89.3047 9.66146 89.1484 10.0729 88.9297 10.4219C88.7161 10.7708 88.4323 11.0443 88.0781 11.2422C87.724 11.4349 87.2891 11.5312 86.7734 11.5312C86.4245 11.5312 86.1068 11.4714 85.8203 11.3516C85.5391 11.2318 85.2943 11.0469 85.0859 10.7969C84.8828 10.5469 84.724 10.2214 84.6094 9.82031C84.5 9.41927 84.4453 8.9375 84.4453 8.375V2.92188H85.8203V8.39062C85.8203 8.77083 85.8542 9.08594 85.9219 9.33594C85.9896 9.58073 86.0807 9.77604 86.1953 9.92188C86.3099 10.0625 86.4375 10.1615 86.5781 10.2188C86.7188 10.276 86.862 10.3047 87.0078 10.3047C87.4974 10.3047 87.888 10.1875 88.1797 9.95312C88.4714 9.71354 88.6797 9.39323 88.8047 8.99219C88.9349 8.58594 89 8.13542 89 7.64062ZM93.5859 4.25V11.375H92.2031V2.92188H93.5391L93.5859 4.25ZM95.6875 2.875L95.6953 4.21875C95.5807 4.19271 95.4766 4.17708 95.3828 4.17188C95.2943 4.16146 95.1901 4.15625 95.0703 4.15625C94.8099 4.15625 94.5807 4.20833 94.3828 4.3125C94.1901 4.41667 94.0234 4.5625 93.8828 4.75C93.7422 4.9375 93.6302 5.16146 93.5469 5.42188C93.4635 5.67708 93.4062 5.95833 93.375 6.26562L93.0156 6.5C93.0156 5.98958 93.0547 5.51042 93.1328 5.0625C93.2161 4.61458 93.3438 4.21875 93.5156 3.875C93.6875 3.52604 93.9062 3.25521 94.1719 3.0625C94.4427 2.86458 94.7656 2.76562 95.1406 2.76562C95.224 2.76562 95.3255 2.77865 95.4453 2.80469C95.5703 2.82552 95.651 2.84896 95.6875 2.875ZM96.6328 7.55469V6.75C96.6328 6.09375 96.7161 5.51823 96.8828 5.02344C97.0495 4.52344 97.2812 4.10677 97.5781 3.77344C97.875 3.4401 98.2214 3.1901 98.6172 3.02344C99.013 2.85156 99.4375 2.76562 99.8906 2.76562C100.354 2.76562 100.784 2.85156 101.18 3.02344C101.576 3.1901 101.922 3.4401 102.219 3.77344C102.521 4.10677 102.755 4.52344 102.922 5.02344C103.089 5.51823 103.172 6.09375 103.172 6.75V7.55469C103.172 8.21094 103.089 8.78906 102.922 9.28906C102.755 9.78385 102.523 10.1979 102.227 10.5312C101.93 10.8646 101.583 11.1146 101.188 11.2812C100.792 11.4479 100.365 11.5312 99.9062 11.5312C99.4479 11.5312 99.0208 11.4479 98.625 11.2812C98.2292 11.1146 97.8802 10.8646 97.5781 10.5312C97.2812 10.1979 97.0495 9.78385 96.8828 9.28906C96.7161 8.78906 96.6328 8.21094 96.6328 7.55469ZM98.0156 6.75V7.55469C98.0156 8.01823 98.0625 8.42448 98.1562 8.77344C98.25 9.1224 98.3828 9.41406 98.5547 9.64844C98.7266 9.88281 98.9271 10.0599 99.1562 10.1797C99.3854 10.2943 99.6354 10.3516 99.9062 10.3516C100.219 10.3516 100.492 10.2943 100.727 10.1797C100.966 10.0599 101.164 9.88281 101.32 9.64844C101.477 9.41406 101.594 9.1224 101.672 8.77344C101.75 8.42448 101.789 8.01823 101.789 7.55469V6.75C101.789 6.28646 101.742 5.88281 101.648 5.53906C101.555 5.1901 101.422 4.89844 101.25 4.66406C101.078 4.42448 100.875 4.2474 100.641 4.13281C100.411 4.01302 100.161 3.95312 99.8906 3.95312C99.625 3.95312 99.3776 4.01302 99.1484 4.13281C98.9193 4.2474 98.7188 4.42448 98.5469 4.66406C98.3802 4.89844 98.25 5.1901 98.1562 5.53906C98.0625 5.88281 98.0156 6.28646 98.0156 6.75Z" fill="#1B1B1B"/>
</svg>
