<svg width="71" height="12" viewBox="0 0 71 12" fill="none" xmlns="http://www.w3.org/2000/svg">
<path d="M3.875 7.52344H1.54688V5.625H3.875C4.20312 5.625 4.46875 5.55208 4.67188 5.40625C4.875 5.26042 5.02344 5.0599 5.11719 4.80469C5.21094 4.54427 5.25781 4.2526 5.25781 3.92969C5.25781 3.60156 5.21094 3.29427 5.11719 3.00781C5.02344 2.72135 4.875 2.49219 4.67188 2.32031C4.46875 2.14323 4.20312 2.05469 3.875 2.05469H2.28906V11.5312H0V0.15625H3.875C4.64062 0.15625 5.29688 0.317708 5.84375 0.640625C6.39583 0.963542 6.82031 1.40885 7.11719 1.97656C7.41406 2.53906 7.5625 3.1849 7.5625 3.91406C7.5625 4.64844 7.41406 5.28646 7.11719 5.82812C6.82031 6.36458 6.39583 6.78125 5.84375 7.07812C5.29688 7.375 4.64062 7.52344 3.875 7.52344ZM15.6172 9.64062V11.5312H10.6719V9.64062H15.6172ZM11.3828 0.15625V11.5312H9.09375V0.15625H11.3828ZM14.9531 4.76562V6.60156H10.6719V4.76562H14.9531ZM15.6016 0.15625V2.05469H10.6719V0.15625H15.6016ZM16.9609 0.15625H20.6094C21.3698 0.15625 22.0182 0.286458 22.5547 0.546875C23.0911 0.807292 23.5026 1.19271 23.7891 1.70312C24.0755 2.21354 24.2188 2.84375 24.2188 3.59375C24.2188 4.20833 24.1354 4.73438 23.9688 5.17188C23.8021 5.60417 23.5651 5.96615 23.2578 6.25781C22.9505 6.54427 22.5833 6.77344 22.1562 6.94531L21.4609 7.35938H18.5L18.4922 5.46094H20.5469C20.8594 5.46094 21.1172 5.39323 21.3203 5.25781C21.5286 5.11719 21.6823 4.92188 21.7812 4.67188C21.8854 4.41667 21.9375 4.11979 21.9375 3.78125C21.9375 3.42188 21.8906 3.11458 21.7969 2.85938C21.7083 2.59896 21.5651 2.40104 21.3672 2.26562C21.1745 2.125 20.9219 2.05469 20.6094 2.05469H19.25V11.5312H16.9609V0.15625ZM22.125 11.5312L20.0391 6.46094L22.4375 6.45312L24.5703 11.4219V11.5312H22.125ZM30.625 8.53906C30.625 8.33594 30.6068 8.15104 30.5703 7.98438C30.5339 7.81771 30.4557 7.66406 30.3359 7.52344C30.2214 7.38281 30.0521 7.24219 29.8281 7.10156C29.6094 6.96094 29.3229 6.8151 28.9688 6.66406C28.5469 6.48698 28.138 6.29948 27.7422 6.10156C27.3464 5.89844 26.9896 5.66406 26.6719 5.39844C26.3542 5.13281 26.1016 4.82031 25.9141 4.46094C25.7318 4.09635 25.6406 3.66927 25.6406 3.17969C25.6406 2.70052 25.7266 2.26562 25.8984 1.875C26.0755 1.48438 26.3255 1.15104 26.6484 0.875C26.9714 0.59375 27.349 0.377604 27.7812 0.226562C28.2188 0.0755208 28.7057 0 29.2422 0C29.9714 0 30.6016 0.151042 31.1328 0.453125C31.6693 0.755208 32.0833 1.16927 32.375 1.69531C32.6719 2.22135 32.8203 2.82552 32.8203 3.50781H30.5391C30.5391 3.1849 30.4922 2.90104 30.3984 2.65625C30.3099 2.40625 30.1667 2.21094 29.9688 2.07031C29.7708 1.92969 29.5156 1.85938 29.2031 1.85938C28.9115 1.85938 28.6693 1.91927 28.4766 2.03906C28.2891 2.15365 28.1484 2.3125 28.0547 2.51562C27.9661 2.71354 27.9219 2.9375 27.9219 3.1875C27.9219 3.375 27.9661 3.54427 28.0547 3.69531C28.1484 3.84115 28.276 3.97396 28.4375 4.09375C28.599 4.20833 28.7891 4.32031 29.0078 4.42969C29.2318 4.53906 29.4766 4.64583 29.7422 4.75C30.2578 4.95312 30.7135 5.17708 31.1094 5.42188C31.5052 5.66146 31.8359 5.93229 32.1016 6.23438C32.3672 6.53125 32.5677 6.86719 32.7031 7.24219C32.8385 7.61719 32.9062 8.04427 32.9062 8.52344C32.9062 8.9974 32.8229 9.42969 32.6562 9.82031C32.4948 10.2057 32.2578 10.5391 31.9453 10.8203C31.6328 11.0964 31.2552 11.3099 30.8125 11.4609C30.375 11.612 29.8854 11.6875 29.3438 11.6875C28.8177 11.6875 28.3203 11.6146 27.8516 11.4688C27.3828 11.3177 26.9688 11.0911 26.6094 10.7891C26.2552 10.4818 25.9766 10.0938 25.7734 9.625C25.5703 9.15104 25.4688 8.59115 25.4688 7.94531H27.7578C27.7578 8.28906 27.7917 8.58333 27.8594 8.82812C27.9271 9.06771 28.0312 9.26042 28.1719 9.40625C28.3125 9.54688 28.4844 9.65365 28.6875 9.72656C28.8958 9.79427 29.1328 9.82812 29.3984 9.82812C29.7005 9.82812 29.9401 9.77083 30.1172 9.65625C30.2995 9.54167 30.4297 9.38802 30.5078 9.19531C30.5859 9.0026 30.625 8.78385 30.625 8.53906ZM42.4453 4.96094V6.85938C42.4453 7.66146 42.3464 8.36458 42.1484 8.96875C41.9557 9.56771 41.6797 10.0703 41.3203 10.4766C40.9661 10.8776 40.5365 11.1797 40.0312 11.3828C39.5312 11.5859 38.9766 11.6875 38.3672 11.6875C37.7578 11.6875 37.2005 11.5859 36.6953 11.3828C36.1953 11.1797 35.763 10.8776 35.3984 10.4766C35.0391 10.0703 34.7604 9.56771 34.5625 8.96875C34.3646 8.36458 34.2656 7.66146 34.2656 6.85938V4.96094C34.2656 4.13802 34.362 3.41927 34.5547 2.80469C34.7474 2.1849 35.026 1.66927 35.3906 1.25781C35.7552 0.841146 36.1875 0.528646 36.6875 0.320312C37.1875 0.106771 37.7422 0 38.3516 0C38.9609 0 39.5156 0.106771 40.0156 0.320312C40.5156 0.528646 40.9479 0.841146 41.3125 1.25781C41.6771 1.66927 41.9557 2.1849 42.1484 2.80469C42.3464 3.41927 42.4453 4.13802 42.4453 4.96094ZM40.1719 6.85938V4.94531C40.1719 4.40365 40.1328 3.94271 40.0547 3.5625C39.9766 3.17708 39.8594 2.86198 39.7031 2.61719C39.5469 2.3724 39.3568 2.19271 39.1328 2.07812C38.9089 1.96354 38.6484 1.90625 38.3516 1.90625C38.0547 1.90625 37.7917 1.96354 37.5625 2.07812C37.3385 2.19271 37.1484 2.3724 36.9922 2.61719C36.8411 2.86198 36.7266 3.17708 36.6484 3.5625C36.5755 3.94271 36.5391 4.40365 36.5391 4.94531V6.85938C36.5391 7.38021 36.5781 7.82552 36.6562 8.19531C36.7344 8.5651 36.8516 8.86719 37.0078 9.10156C37.1641 9.33594 37.3542 9.51042 37.5781 9.625C37.8073 9.73438 38.0703 9.78906 38.3672 9.78906C38.6589 9.78906 38.9167 9.73438 39.1406 9.625C39.3698 9.51042 39.5599 9.33594 39.7109 9.10156C39.862 8.86719 39.9766 8.5651 40.0547 8.19531C40.1328 7.82552 40.1719 7.38021 40.1719 6.85938ZM52.0625 0.15625V11.5312H49.8516L46.2812 4.41406V11.5312H44.1094V0.15625H46.2891L49.8906 7.35156V0.15625H52.0625ZM58.1641 2.1875L55.7188 11.5312H53.3047L56.8594 0.15625H58.3672L58.1641 2.1875ZM60.0938 11.5312L57.6328 2.1875L57.4062 0.15625H58.9375L62.5234 11.5312H60.0938ZM60.1797 7.28906V9.1875H55.0469V7.28906H60.1797ZM68.4219 8.53906C68.4219 8.33594 68.4036 8.15104 68.3672 7.98438C68.3307 7.81771 68.2526 7.66406 68.1328 7.52344C68.0182 7.38281 67.849 7.24219 67.625 7.10156C67.4062 6.96094 67.1198 6.8151 66.7656 6.66406C66.3438 6.48698 65.9349 6.29948 65.5391 6.10156C65.1432 5.89844 64.7865 5.66406 64.4688 5.39844C64.151 5.13281 63.8984 4.82031 63.7109 4.46094C63.5286 4.09635 63.4375 3.66927 63.4375 3.17969C63.4375 2.70052 63.5234 2.26562 63.6953 1.875C63.8724 1.48438 64.1224 1.15104 64.4453 0.875C64.7682 0.59375 65.1458 0.377604 65.5781 0.226562C66.0156 0.0755208 66.5026 0 67.0391 0C67.7682 0 68.3984 0.151042 68.9297 0.453125C69.4661 0.755208 69.8802 1.16927 70.1719 1.69531C70.4688 2.22135 70.6172 2.82552 70.6172 3.50781H68.3359C68.3359 3.1849 68.2891 2.90104 68.1953 2.65625C68.1068 2.40625 67.9635 2.21094 67.7656 2.07031C67.5677 1.92969 67.3125 1.85938 67 1.85938C66.7083 1.85938 66.4661 1.91927 66.2734 2.03906C66.0859 2.15365 65.9453 2.3125 65.8516 2.51562C65.763 2.71354 65.7188 2.9375 65.7188 3.1875C65.7188 3.375 65.763 3.54427 65.8516 3.69531C65.9453 3.84115 66.0729 3.97396 66.2344 4.09375C66.3958 4.20833 66.5859 4.32031 66.8047 4.42969C67.0286 4.53906 67.2734 4.64583 67.5391 4.75C68.0547 4.95312 68.5104 5.17708 68.9062 5.42188C69.3021 5.66146 69.6328 5.93229 69.8984 6.23438C70.1641 6.53125 70.3646 6.86719 70.5 7.24219C70.6354 7.61719 70.7031 8.04427 70.7031 8.52344C70.7031 8.9974 70.6198 9.42969 70.4531 9.82031C70.2917 10.2057 70.0547 10.5391 69.7422 10.8203C69.4297 11.0964 69.0521 11.3099 68.6094 11.4609C68.1719 11.612 67.6823 11.6875 67.1406 11.6875C66.6146 11.6875 66.1172 11.6146 65.6484 11.4688C65.1797 11.3177 64.7656 11.0911 64.4062 10.7891C64.0521 10.4818 63.7734 10.0938 63.5703 9.625C63.3672 9.15104 63.2656 8.59115 63.2656 7.94531H65.5547C65.5547 8.28906 65.5885 8.58333 65.6562 8.82812C65.724 9.06771 65.8281 9.26042 65.9688 9.40625C66.1094 9.54688 66.2812 9.65365 66.4844 9.72656C66.6927 9.79427 66.9297 9.82812 67.1953 9.82812C67.4974 9.82812 67.737 9.77083 67.9141 9.65625C68.0964 9.54167 68.2266 9.38802 68.3047 9.19531C68.3828 9.0026 68.4219 8.78385 68.4219 8.53906Z" fill="white"/>
</svg>
