<svg width="15" height="14" viewBox="0 0 15 14" fill="none" xmlns="http://www.w3.org/2000/svg">
<path fill-rule="evenodd" clip-rule="evenodd" d="M4.28572 8.8H4.97143L5.22854 8.56C4.3714 7.68 3.85711 6.48 3.85711 5.2C3.85714 2.32 6.34286 0 9.42857 0C12.5143 0 15 2.32 15 5.2C15 8.08 12.5143 10.4 9.42857 10.4C8.05714 10.4 6.77143 9.92 5.82857 9.12L5.57143 9.35997V9.99997L1.28571 14L0 12.8L4.28572 8.8ZM9.42857 8.8C11.5714 8.8 13.2857 7.2 13.2857 5.2C13.2857 3.2 11.5714 1.6 9.42857 1.6C7.28571 1.6 5.57143 3.2 5.57143 5.2C5.57143 7.2 7.28571 8.8 9.42857 8.8Z" fill="#FFDC5D"/>
</svg>
