<svg width="526" height="35" viewBox="0 0 526 35" fill="none" xmlns="http://www.w3.org/2000/svg">
<path d="M0.632812 15.7852H4.76367L5.34375 33.4863H0.0527344L0.632812 15.7852ZM5.43164 10.3535C5.43164 11.1387 5.17969 11.7891 4.67578 12.3047C4.17188 12.8086 3.51562 13.0605 2.70703 13.0605C1.92188 13.0605 1.27148 12.8086 0.755859 12.3047C0.251953 11.8008 0 11.1504 0 10.3535C0 9.58008 0.246094 8.93555 0.738281 8.41992C1.23047 7.9043 1.88672 7.64648 2.70703 7.64648C3.53906 7.64648 4.20117 7.9043 4.69336 8.41992C5.18555 8.93555 5.43164 9.58008 5.43164 10.3535ZM21.8496 21.7617H14.8008L13.4297 27H7.96289L15.9609 1.40625H20.6895L28.7402 27H23.2207L21.8496 21.7617ZM15.9258 17.4551H20.707L18.3164 8.33203L15.9258 17.4551ZM30.2344 16.9102C30.2344 13.793 30.7617 11.4668 31.8164 9.93164C32.8711 8.39648 34.4062 7.62891 36.4219 7.62891C37.8867 7.62891 39.1055 8.26172 40.0781 9.52734V0H45.0879V27H40.5703L40.3418 25.0664C39.3223 26.5898 38.0098 27.3516 36.4043 27.3516C34.4121 27.3516 32.8887 26.5898 31.834 25.0664C30.791 23.543 30.2578 21.3047 30.2344 18.3516V16.9102ZM35.2266 18.1582C35.2266 20.0332 35.4258 21.3457 35.8242 22.0957C36.2227 22.834 36.8965 23.2031 37.8457 23.2031C38.8301 23.2031 39.5742 22.7637 40.0781 21.8848V13.2012C39.5859 12.2637 38.8477 11.7949 37.8633 11.7949C36.9492 11.7949 36.2812 12.1641 35.8594 12.9023C35.4375 13.6406 35.2266 14.9531 35.2266 16.8398V18.1582ZM48.0938 16.875C48.0938 13.7578 48.6152 11.4375 49.6582 9.91406C50.7012 8.39062 52.248 7.62891 54.2988 7.62891C55.9629 7.62891 57.2871 8.37891 58.2715 9.87891L58.5879 7.98047H62.9297V34.3125H57.9375V25.5234C57.0117 26.7422 55.793 27.3516 54.2812 27.3516C52.2773 27.3516 50.748 26.5781 49.6934 25.0312C48.6504 23.4727 48.1172 21.2344 48.0938 18.3164V16.875ZM53.0859 18.123C53.0859 19.9629 53.2852 21.2754 53.6836 22.0605C54.082 22.834 54.7617 23.2207 55.7227 23.2207C56.7305 23.2207 57.4688 22.8281 57.9375 22.043V12.9902C57.4688 12.1699 56.7363 11.7598 55.7402 11.7598C54.791 11.7598 54.1113 12.1406 53.7012 12.9023C53.3027 13.6641 53.0977 14.9355 53.0859 16.7168V18.123ZM76.0078 25.2598C74.9766 26.6543 73.5938 27.3516 71.8594 27.3516C70.1133 27.3516 68.7891 26.7539 67.8867 25.5586C66.9844 24.3516 66.5332 22.5996 66.5332 20.3027V7.98047H71.5078V20.4258C71.5312 22.2773 72.1465 23.2031 73.3535 23.2031C74.4902 23.2031 75.3105 22.7109 75.8145 21.7266V7.98047H80.8242V27H76.1484L76.0078 25.2598ZM89.5957 27H84.6035V7.98047H89.5957V27ZM84.375 3.05859C84.375 2.28516 84.6211 1.65234 85.1133 1.16016C85.6055 0.667969 86.2617 0.421875 87.082 0.421875C87.9023 0.421875 88.5586 0.667969 89.0508 1.16016C89.543 1.65234 89.7891 2.28516 89.7891 3.05859C89.7891 3.82031 89.543 4.45312 89.0508 4.95703C88.5703 5.46094 87.9141 5.71289 87.082 5.71289C86.25 5.71289 85.5879 5.46094 85.0957 4.95703C84.6152 4.45312 84.375 3.82031 84.375 3.05859ZM101.127 27.3516C98.5723 27.3516 96.5801 26.5898 95.1504 25.0664C93.7207 23.543 93.0059 21.3633 93.0059 18.5273V17.0156C93.0059 14.0156 93.6621 11.7012 94.9746 10.0723C96.2871 8.44336 98.168 7.62891 100.617 7.62891C103.008 7.62891 104.807 8.39648 106.014 9.93164C107.221 11.4551 107.836 13.7168 107.859 16.7168V19.1602H97.9629C98.0332 20.5664 98.3438 21.5977 98.8945 22.2539C99.4453 22.8984 100.295 23.2207 101.443 23.2207C103.107 23.2207 104.496 22.6523 105.609 21.5156L107.561 24.5215C106.951 25.3652 106.066 26.0508 104.906 26.5781C103.746 27.0938 102.486 27.3516 101.127 27.3516ZM97.998 15.6797H102.973V15.2227C102.949 14.0859 102.762 13.2246 102.41 12.6387C102.059 12.0527 101.449 11.7598 100.582 11.7598C99.7148 11.7598 99.082 12.0703 98.6836 12.6914C98.2969 13.3125 98.0684 14.3086 97.998 15.6797ZM120.059 12.7793L118.406 12.6387C117.047 12.6387 116.127 13.2363 115.646 14.4316V27H110.654V7.98047H115.348L115.488 10.0371C116.273 8.43164 117.357 7.62891 118.74 7.62891C119.303 7.62891 119.76 7.70508 120.111 7.85742L120.059 12.7793ZM131.133 27C130.992 26.707 130.852 26.2148 130.711 25.5234C129.82 26.7422 128.613 27.3516 127.09 27.3516C125.496 27.3516 124.172 26.8242 123.117 25.7695C122.074 24.7148 121.553 23.3496 121.553 21.6738C121.553 19.6816 122.186 18.1406 123.451 17.0508C124.729 15.9609 126.562 15.4043 128.953 15.3809H130.465V13.8516C130.465 12.9961 130.318 12.3926 130.025 12.041C129.732 11.6895 129.305 11.5137 128.742 11.5137C127.5 11.5137 126.879 12.2402 126.879 13.6934H121.904C121.904 11.9355 122.561 10.4883 123.873 9.35156C125.197 8.20313 126.867 7.62891 128.883 7.62891C130.969 7.62891 132.58 8.17383 133.717 9.26367C134.865 10.3418 135.439 11.8887 135.439 13.9043V22.8516C135.463 24.4922 135.697 25.7754 136.143 26.7012V27H131.133ZM128.197 23.4492C128.748 23.4492 129.217 23.3379 129.604 23.1152C129.99 22.8926 130.277 22.6289 130.465 22.3242V18.3691H129.27C128.426 18.3691 127.758 18.6387 127.266 19.1777C126.785 19.7168 126.545 20.4375 126.545 21.3398C126.545 22.7461 127.096 23.4492 128.197 23.4492ZM155.76 21.9023C155.76 21.4805 155.555 21.0938 155.145 20.7422C154.746 20.3789 153.85 19.8926 152.455 19.2832C150.404 18.4512 148.992 17.5898 148.219 16.6992C147.457 15.8086 147.076 14.7012 147.076 13.377C147.076 11.7129 147.674 10.3418 148.869 9.26367C150.076 8.17383 151.67 7.62891 153.65 7.62891C155.736 7.62891 157.406 8.16797 158.66 9.24609C159.914 10.3242 160.541 11.7715 160.541 13.5879H155.566C155.566 12.041 154.922 11.2676 153.633 11.2676C153.105 11.2676 152.672 11.4316 152.332 11.7598C151.992 12.0879 151.822 12.5449 151.822 13.1309C151.822 13.5527 152.01 13.9277 152.385 14.2559C152.76 14.5723 153.645 15.0293 155.039 15.627C157.066 16.377 158.496 17.2148 159.328 18.1406C160.172 19.0547 160.594 20.2441 160.594 21.709C160.594 23.4082 159.955 24.7734 158.678 25.8047C157.4 26.8359 155.725 27.3516 153.65 27.3516C152.256 27.3516 151.025 27.082 149.959 26.543C148.893 25.9922 148.055 25.2305 147.445 24.2578C146.848 23.2852 146.549 22.2363 146.549 21.1113H151.277C151.301 21.9785 151.5 22.6289 151.875 23.0625C152.262 23.4961 152.889 23.7129 153.756 23.7129C155.092 23.7129 155.76 23.1094 155.76 21.9023ZM173.039 25.2598C172.008 26.6543 170.625 27.3516 168.891 27.3516C167.145 27.3516 165.82 26.7539 164.918 25.5586C164.016 24.3516 163.564 22.5996 163.564 20.3027V7.98047H168.539V20.4258C168.562 22.2773 169.178 23.2031 170.385 23.2031C171.521 23.2031 172.342 22.7109 172.846 21.7266V7.98047H177.855V27H173.18L173.039 25.2598ZM198.123 21.9023C198.123 21.4805 197.918 21.0938 197.508 20.7422C197.109 20.3789 196.213 19.8926 194.818 19.2832C192.768 18.4512 191.355 17.5898 190.582 16.6992C189.82 15.8086 189.439 14.7012 189.439 13.377C189.439 11.7129 190.037 10.3418 191.232 9.26367C192.439 8.17383 194.033 7.62891 196.014 7.62891C198.1 7.62891 199.77 8.16797 201.023 9.24609C202.277 10.3242 202.904 11.7715 202.904 13.5879H197.93C197.93 12.041 197.285 11.2676 195.996 11.2676C195.469 11.2676 195.035 11.4316 194.695 11.7598C194.355 12.0879 194.186 12.5449 194.186 13.1309C194.186 13.5527 194.373 13.9277 194.748 14.2559C195.123 14.5723 196.008 15.0293 197.402 15.627C199.43 16.377 200.859 17.2148 201.691 18.1406C202.535 19.0547 202.957 20.2441 202.957 21.709C202.957 23.4082 202.318 24.7734 201.041 25.8047C199.764 26.8359 198.088 27.3516 196.014 27.3516C194.619 27.3516 193.389 27.082 192.322 26.543C191.256 25.9922 190.418 25.2305 189.809 24.2578C189.211 23.2852 188.912 22.2363 188.912 21.1113H193.641C193.664 21.9785 193.863 22.6289 194.238 23.0625C194.625 23.4961 195.252 23.7129 196.119 23.7129C197.455 23.7129 198.123 23.1094 198.123 21.9023ZM213.732 27.3516C211.178 27.3516 209.186 26.5898 207.756 25.0664C206.326 23.543 205.611 21.3633 205.611 18.5273V17.0156C205.611 14.0156 206.268 11.7012 207.58 10.0723C208.893 8.44336 210.773 7.62891 213.223 7.62891C215.613 7.62891 217.412 8.39648 218.619 9.93164C219.826 11.4551 220.441 13.7168 220.465 16.7168V19.1602H210.568C210.639 20.5664 210.949 21.5977 211.5 22.2539C212.051 22.8984 212.9 23.2207 214.049 23.2207C215.713 23.2207 217.102 22.6523 218.215 21.5156L220.166 24.5215C219.557 25.3652 218.672 26.0508 217.512 26.5781C216.352 27.0938 215.092 27.3516 213.732 27.3516ZM210.604 15.6797H215.578V15.2227C215.555 14.0859 215.367 13.2246 215.016 12.6387C214.664 12.0527 214.055 11.7598 213.188 11.7598C212.32 11.7598 211.688 12.0703 211.289 12.6914C210.902 13.3125 210.674 14.3086 210.604 15.6797ZM222.68 16.9102C222.68 13.793 223.242 11.4668 224.367 9.93164C225.492 8.39648 227.068 7.62891 229.096 7.62891C230.818 7.62891 232.148 8.30859 233.086 9.66797L233.279 7.98047H237.762V27C237.762 29.4258 237.082 31.2773 235.723 32.5547C234.363 33.8438 232.412 34.4883 229.869 34.4883C228.826 34.4883 227.73 34.2773 226.582 33.8555C225.434 33.4453 224.578 32.918 224.016 32.2734L225.686 28.8281C226.154 29.3203 226.764 29.7188 227.514 30.0234C228.264 30.3398 228.973 30.498 229.641 30.498C230.754 30.498 231.551 30.2285 232.031 29.6895C232.523 29.1621 232.775 28.3066 232.787 27.123V25.4883C231.838 26.7305 230.602 27.3516 229.078 27.3516C227.051 27.3516 225.48 26.5664 224.367 24.9961C223.266 23.4141 222.703 21.1875 222.68 18.3164V16.9102ZM227.654 18.1582C227.654 19.916 227.883 21.1992 228.34 22.0078C228.797 22.8047 229.523 23.2031 230.52 23.2031C231.539 23.2031 232.295 22.834 232.787 22.0957V13.0078C232.271 12.1992 231.527 11.7949 230.555 11.7949C229.57 11.7949 228.838 12.1992 228.357 13.0078C227.889 13.8164 227.654 15.1172 227.654 16.9102V18.1582ZM250.734 25.2598C249.703 26.6543 248.32 27.3516 246.586 27.3516C244.84 27.3516 243.516 26.7539 242.613 25.5586C241.711 24.3516 241.26 22.5996 241.26 20.3027V7.98047H246.234V20.4258C246.258 22.2773 246.873 23.2031 248.08 23.2031C249.217 23.2031 250.037 22.7109 250.541 21.7266V7.98047H255.551V27H250.875L250.734 25.2598ZM268.488 12.7793L266.836 12.6387C265.477 12.6387 264.557 13.2363 264.076 14.4316V27H259.084V7.98047H263.777L263.918 10.0371C264.703 8.43164 265.787 7.62891 267.17 7.62891C267.732 7.62891 268.189 7.70508 268.541 7.85742L268.488 12.7793ZM269.842 16.875C269.842 13.9922 270.521 11.7305 271.881 10.0898C273.24 8.44922 275.121 7.62891 277.523 7.62891C279.949 7.62891 281.842 8.44922 283.201 10.0898C284.561 11.7305 285.24 14.0039 285.24 16.9102V18.123C285.24 21.0176 284.566 23.2793 283.219 24.9082C281.871 26.5371 279.984 27.3516 277.559 27.3516C275.121 27.3516 273.223 26.5371 271.863 24.9082C270.516 23.2676 269.842 20.9941 269.842 18.0879V16.875ZM274.834 18.123C274.834 21.5215 275.742 23.2207 277.559 23.2207C279.234 23.2207 280.137 21.8027 280.266 18.9668L280.283 16.875C280.283 15.1406 280.043 13.8574 279.562 13.0254C279.082 12.1816 278.402 11.7598 277.523 11.7598C276.68 11.7598 276.018 12.1816 275.537 13.0254C275.068 13.8574 274.834 15.1406 274.834 16.875V18.123ZM304.33 27.3516C301.775 27.3516 299.783 26.5898 298.354 25.0664C296.924 23.543 296.209 21.3633 296.209 18.5273V17.0156C296.209 14.0156 296.865 11.7012 298.178 10.0723C299.49 8.44336 301.371 7.62891 303.82 7.62891C306.211 7.62891 308.01 8.39648 309.217 9.93164C310.424 11.4551 311.039 13.7168 311.062 16.7168V19.1602H301.166C301.236 20.5664 301.547 21.5977 302.098 22.2539C302.648 22.8984 303.498 23.2207 304.646 23.2207C306.311 23.2207 307.699 22.6523 308.812 21.5156L310.764 24.5215C310.154 25.3652 309.27 26.0508 308.109 26.5781C306.949 27.0938 305.689 27.3516 304.33 27.3516ZM301.201 15.6797H306.176V15.2227C306.152 14.0859 305.965 13.2246 305.613 12.6387C305.262 12.0527 304.652 11.7598 303.785 11.7598C302.918 11.7598 302.285 12.0703 301.887 12.6914C301.5 13.3125 301.271 14.3086 301.201 15.6797ZM318.428 7.98047L318.568 9.86133C319.693 8.37305 321.164 7.62891 322.98 7.62891C326.25 7.62891 327.932 9.91992 328.025 14.502V27H323.033V14.8711C323.033 13.793 322.869 13.0137 322.541 12.5332C322.225 12.041 321.662 11.7949 320.854 11.7949C319.951 11.7949 319.248 12.2578 318.744 13.1836V27H313.752V7.98047H318.428ZM354.709 18.0879C354.709 21.0762 354.193 23.3672 353.162 24.9609C352.143 26.5547 350.619 27.3516 348.592 27.3516C347.045 27.3516 345.803 26.7246 344.865 25.4707V34.3125H339.891V7.98047H344.496L344.672 9.7207C345.621 8.32617 346.916 7.62891 348.557 7.62891C350.584 7.62891 352.107 8.36719 353.127 9.84375C354.158 11.3203 354.686 13.582 354.709 16.6289V18.0879ZM349.752 16.8398C349.752 15 349.547 13.6992 349.137 12.9375C348.738 12.1758 348.059 11.7949 347.098 11.7949C346.078 11.7949 345.334 12.2227 344.865 13.0781V21.9902C345.311 22.8105 346.066 23.2207 347.133 23.2207C348.117 23.2207 348.797 22.8047 349.172 21.9727C349.559 21.1406 349.752 19.8457 349.752 18.0879V16.8398ZM357.135 16.875C357.135 13.9922 357.814 11.7305 359.174 10.0898C360.533 8.44922 362.414 7.62891 364.816 7.62891C367.242 7.62891 369.135 8.44922 370.494 10.0898C371.854 11.7305 372.533 14.0039 372.533 16.9102V18.123C372.533 21.0176 371.859 23.2793 370.512 24.9082C369.164 26.5371 367.277 27.3516 364.852 27.3516C362.414 27.3516 360.516 26.5371 359.156 24.9082C357.809 23.2676 357.135 20.9941 357.135 18.0879V16.875ZM362.127 18.123C362.127 21.5215 363.035 23.2207 364.852 23.2207C366.527 23.2207 367.43 21.8027 367.559 18.9668L367.576 16.875C367.576 15.1406 367.336 13.8574 366.855 13.0254C366.375 12.1816 365.695 11.7598 364.816 11.7598C363.973 11.7598 363.311 12.1816 362.83 13.0254C362.361 13.8574 362.127 15.1406 362.127 16.875V18.123ZM382.518 23.2207C383.959 23.2207 384.691 22.2832 384.715 20.4082H389.391C389.367 22.4824 388.729 24.1582 387.475 25.4355C386.221 26.7129 384.604 27.3516 382.623 27.3516C380.174 27.3516 378.305 26.5898 377.016 25.0664C375.727 23.543 375.07 21.2988 375.047 18.334V16.8223C375.047 13.834 375.68 11.5547 376.945 9.98438C378.223 8.41406 380.104 7.62891 382.588 7.62891C384.686 7.62891 386.338 8.2793 387.545 9.58008C388.752 10.8691 389.367 12.7031 389.391 15.082H384.715C384.703 14.0156 384.527 13.1953 384.188 12.6211C383.848 12.0469 383.285 11.7598 382.5 11.7598C381.633 11.7598 381.012 12.0703 380.637 12.6914C380.262 13.3008 380.062 14.4902 380.039 16.2598V18.1934C380.039 19.7402 380.115 20.8242 380.268 21.4453C380.42 22.0547 380.672 22.5059 381.023 22.7988C381.375 23.0801 381.873 23.2207 382.518 23.2207ZM391.623 16.875C391.623 13.9922 392.303 11.7305 393.662 10.0898C395.021 8.44922 396.902 7.62891 399.305 7.62891C401.73 7.62891 403.623 8.44922 404.982 10.0898C406.342 11.7305 407.021 14.0039 407.021 16.9102V18.123C407.021 21.0176 406.348 23.2793 405 24.9082C403.652 26.5371 401.766 27.3516 399.34 27.3516C396.902 27.3516 395.004 26.5371 393.645 24.9082C392.297 23.2676 391.623 20.9941 391.623 18.0879V16.875ZM396.615 18.123C396.615 21.5215 397.523 23.2207 399.34 23.2207C401.016 23.2207 401.918 21.8027 402.047 18.9668L402.064 16.875C402.064 15.1406 401.824 13.8574 401.344 13.0254C400.863 12.1816 400.184 11.7598 399.305 11.7598C398.461 11.7598 397.799 12.1816 397.318 13.0254C396.85 13.8574 396.615 15.1406 396.615 16.875V18.123ZM418.553 21.9023C418.553 21.4805 418.348 21.0938 417.938 20.7422C417.539 20.3789 416.643 19.8926 415.248 19.2832C413.197 18.4512 411.785 17.5898 411.012 16.6992C410.25 15.8086 409.869 14.7012 409.869 13.377C409.869 11.7129 410.467 10.3418 411.662 9.26367C412.869 8.17383 414.463 7.62891 416.443 7.62891C418.529 7.62891 420.199 8.16797 421.453 9.24609C422.707 10.3242 423.334 11.7715 423.334 13.5879H418.359C418.359 12.041 417.715 11.2676 416.426 11.2676C415.898 11.2676 415.465 11.4316 415.125 11.7598C414.785 12.0879 414.615 12.5449 414.615 13.1309C414.615 13.5527 414.803 13.9277 415.178 14.2559C415.553 14.5723 416.438 15.0293 417.832 15.627C419.859 16.377 421.289 17.2148 422.121 18.1406C422.965 19.0547 423.387 20.2441 423.387 21.709C423.387 23.4082 422.748 24.7734 421.471 25.8047C420.193 26.8359 418.518 27.3516 416.443 27.3516C415.049 27.3516 413.818 27.082 412.752 26.543C411.686 25.9922 410.848 25.2305 410.238 24.2578C409.641 23.2852 409.342 22.2363 409.342 21.1113H414.07C414.094 21.9785 414.293 22.6289 414.668 23.0625C415.055 23.4961 415.682 23.7129 416.549 23.7129C417.885 23.7129 418.553 23.1094 418.553 21.9023ZM449.596 18.0879C449.596 21.0762 449.08 23.3672 448.049 24.9609C447.029 26.5547 445.506 27.3516 443.479 27.3516C441.932 27.3516 440.689 26.7246 439.752 25.4707V34.3125H434.777V7.98047H439.383L439.559 9.7207C440.508 8.32617 441.803 7.62891 443.443 7.62891C445.471 7.62891 446.994 8.36719 448.014 9.84375C449.045 11.3203 449.572 13.582 449.596 16.6289V18.0879ZM444.639 16.8398C444.639 15 444.434 13.6992 444.023 12.9375C443.625 12.1758 442.945 11.7949 441.984 11.7949C440.965 11.7949 440.221 12.2227 439.752 13.0781V21.9902C440.197 22.8105 440.953 23.2207 442.02 23.2207C443.004 23.2207 443.684 22.8047 444.059 21.9727C444.445 21.1406 444.639 19.8457 444.639 18.0879V16.8398ZM461.637 27C461.496 26.707 461.355 26.2148 461.215 25.5234C460.324 26.7422 459.117 27.3516 457.594 27.3516C456 27.3516 454.676 26.8242 453.621 25.7695C452.578 24.7148 452.057 23.3496 452.057 21.6738C452.057 19.6816 452.689 18.1406 453.955 17.0508C455.232 15.9609 457.066 15.4043 459.457 15.3809H460.969V13.8516C460.969 12.9961 460.822 12.3926 460.529 12.041C460.236 11.6895 459.809 11.5137 459.246 11.5137C458.004 11.5137 457.383 12.2402 457.383 13.6934H452.408C452.408 11.9355 453.064 10.4883 454.377 9.35156C455.701 8.20313 457.371 7.62891 459.387 7.62891C461.473 7.62891 463.084 8.17383 464.221 9.26367C465.369 10.3418 465.943 11.8887 465.943 13.9043V22.8516C465.967 24.4922 466.201 25.7754 466.646 26.7012V27H461.637ZM458.701 23.4492C459.252 23.4492 459.721 23.3379 460.107 23.1152C460.494 22.8926 460.781 22.6289 460.969 22.3242V18.3691H459.773C458.93 18.3691 458.262 18.6387 457.77 19.1777C457.289 19.7168 457.049 20.4375 457.049 21.3398C457.049 22.7461 457.6 23.4492 458.701 23.4492ZM477.967 21.9023C477.967 21.4805 477.762 21.0938 477.352 20.7422C476.953 20.3789 476.057 19.8926 474.662 19.2832C472.611 18.4512 471.199 17.5898 470.426 16.6992C469.664 15.8086 469.283 14.7012 469.283 13.377C469.283 11.7129 469.881 10.3418 471.076 9.26367C472.283 8.17383 473.877 7.62891 475.857 7.62891C477.943 7.62891 479.613 8.16797 480.867 9.24609C482.121 10.3242 482.748 11.7715 482.748 13.5879H477.773C477.773 12.041 477.129 11.2676 475.84 11.2676C475.312 11.2676 474.879 11.4316 474.539 11.7598C474.199 12.0879 474.029 12.5449 474.029 13.1309C474.029 13.5527 474.217 13.9277 474.592 14.2559C474.967 14.5723 475.852 15.0293 477.246 15.627C479.273 16.377 480.703 17.2148 481.535 18.1406C482.379 19.0547 482.801 20.2441 482.801 21.709C482.801 23.4082 482.162 24.7734 480.885 25.8047C479.607 26.8359 477.932 27.3516 475.857 27.3516C474.463 27.3516 473.232 27.082 472.166 26.543C471.1 25.9922 470.262 25.2305 469.652 24.2578C469.055 23.2852 468.756 22.2363 468.756 21.1113H473.484C473.508 21.9785 473.707 22.6289 474.082 23.0625C474.469 23.4961 475.096 23.7129 475.963 23.7129C477.299 23.7129 477.967 23.1094 477.967 21.9023ZM485.314 16.875C485.314 13.9922 485.994 11.7305 487.354 10.0898C488.713 8.44922 490.594 7.62891 492.996 7.62891C495.422 7.62891 497.314 8.44922 498.674 10.0898C500.033 11.7305 500.713 14.0039 500.713 16.9102V18.123C500.713 21.0176 500.039 23.2793 498.691 24.9082C497.344 26.5371 495.457 27.3516 493.031 27.3516C490.594 27.3516 488.695 26.5371 487.336 24.9082C485.988 23.2676 485.314 20.9941 485.314 18.0879V16.875ZM490.307 18.123C490.307 21.5215 491.215 23.2207 493.031 23.2207C494.707 23.2207 495.609 21.8027 495.738 18.9668L495.756 16.875C495.756 15.1406 495.516 13.8574 495.035 13.0254C494.555 12.1816 493.875 11.7598 492.996 11.7598C492.152 11.7598 491.49 12.1816 491.01 13.0254C490.541 13.8574 490.307 15.1406 490.307 16.875V18.123ZM512.244 21.9023C512.244 21.4805 512.039 21.0938 511.629 20.7422C511.23 20.3789 510.334 19.8926 508.939 19.2832C506.889 18.4512 505.477 17.5898 504.703 16.6992C503.941 15.8086 503.561 14.7012 503.561 13.377C503.561 11.7129 504.158 10.3418 505.354 9.26367C506.561 8.17383 508.154 7.62891 510.135 7.62891C512.221 7.62891 513.891 8.16797 515.145 9.24609C516.398 10.3242 517.025 11.7715 517.025 13.5879H512.051C512.051 12.041 511.406 11.2676 510.117 11.2676C509.59 11.2676 509.156 11.4316 508.816 11.7598C508.477 12.0879 508.307 12.5449 508.307 13.1309C508.307 13.5527 508.494 13.9277 508.869 14.2559C509.244 14.5723 510.129 15.0293 511.523 15.627C513.551 16.377 514.98 17.2148 515.812 18.1406C516.656 19.0547 517.078 20.2441 517.078 21.709C517.078 23.4082 516.439 24.7734 515.162 25.8047C513.885 26.8359 512.209 27.3516 510.135 27.3516C508.74 27.3516 507.51 27.082 506.443 26.543C505.377 25.9922 504.539 25.2305 503.93 24.2578C503.332 23.2852 503.033 22.2363 503.033 21.1113H507.762C507.785 21.9785 507.984 22.6289 508.359 23.0625C508.746 23.4961 509.373 23.7129 510.24 23.7129C511.576 23.7129 512.244 23.1094 512.244 21.9023ZM525.252 19.125H521.121L520.541 1.40625H525.832L525.252 19.125ZM520.453 24.5918C520.453 23.7949 520.705 23.1445 521.209 22.6406C521.713 22.125 522.369 21.8672 523.178 21.8672C523.975 21.8672 524.625 22.125 525.129 22.6406C525.633 23.1445 525.885 23.7949 525.885 24.5918C525.885 25.377 525.633 26.0215 525.129 26.5254C524.637 27.0293 523.986 27.2812 523.178 27.2812C522.357 27.2812 521.695 27.0293 521.191 26.5254C520.699 26.0215 520.453 25.377 520.453 24.5918Z" fill="#016D38"/>
</svg>
